<?xml version="1.0" encoding="UTF-8" standalone="no"?>
<!-- Created with Inkscape (http://www.inkscape.org/) -->

<svg
   xmlns:dc="http://purl.org/dc/elements/1.1/"
   xmlns:cc="http://creativecommons.org/ns#"
   xmlns:rdf="http://www.w3.org/1999/02/22-rdf-syntax-ns#"
   xmlns:svg="http://www.w3.org/2000/svg"
   xmlns="http://www.w3.org/2000/svg"
   xmlns:sodipodi="http://sodipodi.sourceforge.net/DTD/sodipodi-0.dtd"
   xmlns:inkscape="http://www.inkscape.org/namespaces/inkscape"
   version="1.1"
   id="svg1706"
   xml:space="preserve"
   width="800"
   height="800"
   viewBox="0 0 800 800"
   sodipodi:docname="random-tiles-svg.svg"
   inkscape:version="0.92.4 (5da689c313, 2019-01-14)"><metadata
     id="metadata1712"><rdf:RDF><cc:Work
         rdf:about=""><dc:format>image/svg+xml</dc:format><dc:type
           rdf:resource="http://purl.org/dc/dcmitype/StillImage" /><dc:title></dc:title></cc:Work></rdf:RDF></metadata><defs
     id="defs1710"><clipPath
       clipPathUnits="userSpaceOnUse"
       id="clipPath1722"><path
         d="M 0,600 H 600 V 0 H 0 Z"
         id="path1720"
         inkscape:connector-curvature="0" /></clipPath><radialGradient
       fx="0"
       fy="0"
       cx="0"
       cy="0"
       r="1"
       gradientUnits="userSpaceOnUse"
       gradientTransform="matrix(233.02289,0,0,-233.02289,298.7002,319.71777)"
       spreadMethod="pad"
       id="radialGradient1742"><stop
         style="stop-opacity:1;stop-color:#ffffff"
         offset="0"
         id="stop1736" /><stop
         style="stop-opacity:1;stop-color:#00adef"
         offset="0.52"
         id="stop1738" /><stop
         style="stop-opacity:1;stop-color:#2c3364"
         offset="1"
         id="stop1740" /></radialGradient></defs><sodipodi:namedview
     pagecolor="#ffffff"
     bordercolor="#666666"
     borderopacity="1"
     objecttolerance="10"
     gridtolerance="10"
     guidetolerance="10"
     inkscape:pageopacity="0"
     inkscape:pageshadow="2"
     inkscape:window-width="1920"
     inkscape:window-height="1018"
     id="namedview1708"
     showgrid="false"
     inkscape:zoom="0.81581433"
     inkscape:cx="457.62712"
     inkscape:cy="374.57627"
     inkscape:window-x="-8"
     inkscape:window-y="-8"
     inkscape:window-maximized="1"
     inkscape:current-layer="g1714" /><g
     id="g1714"
     inkscape:groupmode="layer"
     inkscape:label="abstract-1030-publicdomainvectors.org"
     transform="matrix(1.3333333,0,0,-1.3333333,0,800)"><g
       id="g2405"><g
         id="g1724"><g
           id="g1726"><g
             id="g1732"><g
               id="g1734"><path
                 inkscape:connector-curvature="0"
                 id="path1744"
                 style="fill:url(#radialGradient1742);stroke:none"
                 d="M 13.288,247.227 C 9.22,246.455 5.152,245.663 1.083,244.851 v -9.437 c 4.069,0.907 8.137,1.792 12.205,2.656 z m 14.617,-17.363 c -4.057,-0.912 -8.117,-1.843 -12.177,-2.808 v -9.103 c 4.06,1.053 8.119,2.076 12.177,3.069 z m 14.559,22.532 c -4.037,-0.669 -8.081,-1.357 -12.128,-2.064 v -8.793 c 4.047,0.794 8.09,1.563 12.128,2.308 z m 14.472,2.313 c -4.011,-0.618 -8.029,-1.257 -12.054,-1.915 v -8.503 c 4.025,0.734 8.042,1.45 12.053,2.139 0,2.759 10e-4,5.519 10e-4,8.279 m 14.356,2.136 c -3.975,-0.574 -7.961,-1.158 -11.955,-1.769 v -8.235 c 3.994,0.679 7.979,1.339 11.955,1.978 z m 14.216,1.966 c -3.934,-0.525 -7.88,-1.065 -11.836,-1.627 v -7.987 c 3.956,0.624 7.901,1.235 11.836,1.819 z m 14.047,1.801 c -3.885,-0.479 -7.783,-0.975 -11.694,-1.49 v -7.759 c 3.911,0.574 7.809,1.13 11.694,1.663 z m 13.852,-22.091 c -3.829,-0.596 -7.672,-1.225 -11.529,-1.87 v -7.549 c 3.857,0.7 7.7,1.379 11.529,2.028 z m 13.632,25.219 c -3.764,-0.392 -7.545,-0.802 -11.344,-1.229 v -7.362 c 3.798,0.48 7.58,0.935 11.344,1.374 z m 13.388,1.342 c -3.694,-0.353 -7.407,-0.724 -11.139,-1.107 v -7.19 c 3.732,0.431 7.445,0.846 11.139,1.238 z m 13.12,1.202 c -3.617,-0.315 -7.255,-0.646 -10.914,-0.992 v -7.034 c 3.659,0.384 7.297,0.754 10.914,1.108 z m 12.829,1.069 c -3.533,-0.279 -7.09,-0.573 -10.67,-0.882 v -6.897 c 3.58,0.345 7.136,0.676 10.67,0.987 z m 12.519,0.942 c -3.445,-0.246 -6.915,-0.504 -10.409,-0.776 0,-2.258 -10e-4,-4.517 -10e-4,-6.774 3.495,0.307 6.964,0.596 10.41,0.869 z m 12.186,-21.049 c -3.351,-0.299 -6.728,-0.609 -10.131,-0.944 0,-2.222 -10e-4,-4.443 -10e-4,-6.664 3.403,0.362 6.78,0.699 10.132,1.023 z m 11.836,22.587 c -3.251,-0.184 -6.532,-0.381 -9.838,-0.587 v -6.569 c 3.306,0.23 6.587,0.449 9.838,0.656 z m 11.469,0.61 c -3.148,-0.162 -6.325,-0.323 -9.532,-0.501 v -6.488 c 3.207,0.198 6.384,0.383 9.532,0.56 z m 11.084,0.515 c -3.04,-0.128 -6.11,-0.272 -9.21,-0.423 v -6.419 c 3.1,0.167 6.17,0.328 9.21,0.473 z m 10.686,-17.756 c -2.927,-0.144 -5.886,-0.298 -8.876,-0.468 v -6.358 c 2.99,0.182 5.949,0.351 8.876,0.509 z m 10.276,18.528 c -2.812,-0.085 -5.658,-0.181 -8.534,-0.283 v -6.311 c 2.876,0.109 5.721,0.22 8.534,0.316 z m 9.853,0.273 c -2.694,-0.065 -5.422,-0.142 -8.182,-0.223 v -6.27 c 2.76,0.09 5.488,0.172 8.182,0.248 z m 9.421,0.208 c -2.572,-0.052 -5.18,-0.107 -7.821,-0.169 v -6.241 c 2.641,0.072 5.249,0.134 7.821,0.189 z m 8.982,0.15 c -2.451,-0.032 -4.935,-0.072 -7.454,-0.121 v -6.219 c 2.519,0.053 5.003,0.097 7.454,0.136 z m 8.536,0.098 c -2.327,-0.02 -4.687,-0.045 -7.082,-0.077 v -6.203 c 2.395,0.037 4.755,0.062 7.082,0.088 z m 8.085,-34.585 c -2.201,-0.012 -4.436,-0.039 -6.706,-0.068 v -6.191 c 2.27,0.031 4.505,0.057 6.706,0.074 z m 7.633,34.656 c -2.075,0 -4.185,-0.006 -6.329,-0.011 v -6.186 c 2.144,0.007 4.254,0.013 6.329,0.013 z m 7.663,-0.019 c -2.174,0.01 -4.313,0.018 -6.417,0.018 v -6.183 c 2.104,-0.003 4.243,-0.008 6.417,-0.022 z m 8.116,-0.056 c -2.301,0.023 -4.566,0.04 -6.796,0.049 v -6.187 c 2.23,-0.012 4.495,-0.03 6.795,-0.055 0,2.064 10e-4,4.128 10e-4,6.193 m 8.564,-0.101 c -2.425,0.035 -4.814,0.061 -7.169,0.087 v -6.195 c 2.355,-0.022 4.744,-0.058 7.169,-0.098 z m 9.01,-0.154 c -2.548,0.053 -5.061,0.095 -7.54,0.131 v -6.207 c 2.479,-0.04 4.992,-0.093 7.54,-0.147 z m 9.45,-0.212 c -2.669,0.068 -5.304,0.125 -7.906,0.181 v -6.228 c 2.602,-0.059 5.237,-0.127 7.906,-0.201 z m 9.88,-0.278 c -2.787,0.084 -5.542,0.167 -8.263,0.236 v -6.252 c 2.721,-0.08 5.476,-0.168 8.263,-0.264 z m 10.304,-0.353 c -2.904,0.11 -5.776,0.207 -8.615,0.3 v -6.287 c 2.839,-0.101 5.711,-0.213 8.615,-0.333 z m 10.712,-10.271 c -3.016,0.156 -6.002,0.299 -8.955,0.434 v -6.331 c 2.955,-0.144 5.939,-0.302 8.955,-0.474 z m 11.11,9.321 c -3.125,0.156 -6.22,0.305 -9.286,0.439 v -6.381 c 3.066,-0.151 6.161,-0.317 9.286,-0.492 z m 11.493,-0.617 c -3.23,0.185 -6.431,0.356 -9.604,0.52 v -6.445 c 3.173,-0.18 6.374,-0.376 9.603,-0.582 0,2.169 0.001,4.337 0.001,6.507 m 11.859,-0.721 c -3.33,0.216 -6.632,0.418 -9.908,0.608 v -6.519 c 3.276,-0.213 6.578,-0.438 9.908,-0.679 z m 12.21,-0.832 c -3.426,0.246 -6.826,0.483 -10.199,0.701 v -6.605 c 3.372,-0.249 6.773,-0.509 10.199,-0.784 z m 12.539,-45.827 c -3.515,0.494 -7.005,0.975 -10.473,1.422 v -6.707 c 3.468,-0.478 6.958,-0.988 10.473,-1.515 z m 12.848,43.8 c -3.598,0.315 -7.175,0.617 -10.729,0.905 v -6.818 c 3.554,-0.322 7.131,-0.658 10.729,-1.014 z M 457.838,265 c -3.677,0.354 -7.333,0.691 -10.968,1.018 v -6.95 c 3.635,-0.361 7.291,-0.741 10.968,-1.138 z m 13.405,-14.52 c -3.749,0.48 -7.478,0.938 -11.188,1.378 v -7.093 c 3.71,-0.486 7.439,-0.987 11.188,-1.512 z m 13.648,11.671 c -3.815,0.435 -7.611,0.855 -11.391,1.258 v -7.255 c 3.78,-0.449 7.576,-0.92 11.391,-1.407 z m 13.865,-1.653 c -3.871,0.481 -7.729,0.943 -11.57,1.388 v -7.435 c 3.841,-0.499 7.699,-1.011 11.57,-1.55 z m 14.06,-1.81 c -3.924,0.524 -7.834,1.032 -11.73,1.52 v -7.631 c 3.896,-0.546 7.807,-1.113 11.73,-1.7 z M 527.04,237.59 c -3.966,0.731 -7.922,1.437 -11.865,2.123 v -7.848 c 3.944,-0.747 7.9,-1.517 11.865,-2.317 z m 14.366,16.973 c -4.003,0.619 -7.995,1.22 -11.981,1.801 0,-2.694 -10e-4,-5.388 -10e-4,-8.082 3.985,-0.648 7.978,-1.323 11.981,-2.013 0,2.765 10e-4,5.528 10e-4,8.294 m 14.478,-2.324 c -4.03,0.669 -8.056,1.321 -12.072,1.949 v -8.338 c 4.016,-0.704 8.042,-1.431 12.072,-2.178 z m 14.562,-2.505 c -4.051,0.72 -8.097,1.422 -12.141,2.101 v -8.616 c 4.044,-0.759 8.091,-1.541 12.141,-2.346 z m 14.62,-2.689 c -4.064,0.771 -8.127,1.526 -12.188,2.254 v -8.913 c 4.062,-0.813 8.125,-1.654 12.188,-2.52 z m 14.649,-51.937 c -4.067,1.326 -8.137,2.618 -12.208,3.873 v -9.231 c 4.071,-1.35 8.143,-2.733 12.208,-4.157 z M 13.288,258.213 c -4.067,-0.662 -8.136,-1.341 -12.205,-2.04 v -9.436 c 4.069,0.793 8.138,1.566 12.205,2.32 z m 14.617,2.301 c -4.056,-0.618 -8.115,-1.254 -12.177,-1.907 v -9.102 c 4.062,0.744 8.121,1.464 12.177,2.167 z m 14.559,2.141 c -4.038,-0.573 -8.081,-1.165 -12.128,-1.774 v -8.791 c 4.047,0.691 8.09,1.365 12.128,2.015 z m 14.472,-39.401 c -4.011,-0.897 -8.03,-1.819 -12.054,-2.769 v -8.503 c 4.023,1.029 8.041,2.029 12.053,2.994 0,2.759 10e-4,5.518 10e-4,8.278 m 14.356,43.223 c -3.976,-0.489 -7.961,-0.995 -11.955,-1.521 v -8.232 c 3.994,0.592 7.979,1.17 11.955,1.726 z m 14.216,1.687 c -3.934,-0.448 -7.88,-0.917 -11.836,-1.396 v -7.988 c 3.956,0.55 7.902,1.078 11.836,1.588 z m 14.047,1.547 c -3.884,-0.412 -7.783,-0.835 -11.694,-1.278 v -7.759 c 3.911,0.501 7.809,0.986 11.694,1.453 z m 13.852,1.41 c -3.828,-0.372 -7.671,-0.761 -11.529,-1.165 v -7.55 c 3.859,0.455 7.701,0.903 11.529,1.324 z m 13.632,1.278 c -3.764,-0.336 -7.545,-0.687 -11.344,-1.055 v -7.362 c 3.799,0.416 7.58,0.818 11.344,1.201 z m 13.388,1.154 c -3.693,-0.305 -7.406,-0.623 -11.139,-0.952 v -7.189 c 3.732,0.377 7.445,0.737 11.139,1.081 z m 13.12,-18.72 c -3.617,-0.377 -7.255,-0.773 -10.914,-1.184 v -7.035 c 3.659,0.452 7.297,0.888 10.914,1.302 z m 12.829,20.669 c -3.533,-0.238 -7.09,-0.493 -10.67,-0.756 v -6.896 c 3.58,0.299 7.137,0.589 10.67,0.86 z m 12.519,0.811 c -3.445,-0.21 -6.915,-0.435 -10.409,-0.667 0,-2.259 -10e-4,-4.517 -10e-4,-6.774 3.495,0.267 6.965,0.52 10.41,0.759 z m 12.186,0.708 c -3.351,-0.184 -6.728,-0.378 -10.131,-0.583 0,-2.222 -10e-4,-4.443 -10e-4,-6.666 3.404,0.233 6.78,0.457 10.132,0.664 z m 11.836,0.613 c -3.251,-0.16 -6.532,-0.329 -9.838,-0.504 v -6.569 c 3.306,0.201 6.587,0.391 9.838,0.572 z m 11.469,0.523 c -3.148,-0.134 -6.325,-0.278 -9.532,-0.429 v -6.489 c 3.207,0.172 6.384,0.334 9.532,0.49 z m 11.084,0.442 c -3.04,-0.112 -6.11,-0.232 -9.21,-0.363 v -6.418 c 3.1,0.147 6.17,0.288 9.21,0.413 z m 10.686,0.367 c -2.927,-0.092 -5.886,-0.194 -8.876,-0.301 v -6.36 c 2.99,0.125 5.949,0.237 8.876,0.342 z m 10.276,0.297 c -2.812,-0.072 -5.658,-0.159 -8.534,-0.242 v -6.311 c 2.876,0.097 5.721,0.192 8.534,0.275 z m 9.853,0.235 c -2.694,-0.056 -5.422,-0.12 -8.182,-0.191 v -6.273 c 2.76,0.081 5.488,0.149 8.182,0.218 z m 9.421,-15.511 c -2.572,-0.059 -5.18,-0.121 -7.821,-0.195 v -6.241 c 2.641,0.081 5.249,0.153 7.821,0.215 z m 8.982,15.818 c -2.451,-0.029 -4.935,-0.061 -7.454,-0.103 v -6.219 c 2.519,0.046 5.003,0.085 7.454,0.118 z m 8.536,0.086 c -2.327,-0.021 -4.687,-0.039 -7.082,-0.07 v -6.2 c 2.395,0.032 4.755,0.057 7.082,0.077 z m 8.085,0.045 c -2.201,-0.007 -4.436,-0.021 -6.706,-0.037 v -6.19 c 2.27,0.017 4.505,0.035 6.706,0.042 z m 7.633,0.015 c -2.075,0 -4.185,-0.009 -6.329,-0.011 v -6.185 c 2.144,0.007 4.254,0.011 6.329,0.011 z m 7.663,-0.017 c -2.174,0.006 -4.313,0.012 -6.417,0.015 v -6.183 c 2.104,-0.004 4.243,-0.008 6.417,-0.018 z m 8.116,-19.451 c -2.301,0.027 -4.566,0.049 -6.796,0.061 v -6.187 c 2.23,-0.016 4.495,-0.037 6.795,-0.067 0,2.065 10e-4,4.129 10e-4,6.193 m 8.564,19.315 c -2.425,0.03 -4.814,0.056 -7.169,0.075 v -6.193 c 2.355,-0.023 4.744,-0.052 7.169,-0.086 z m 9.01,-16.861 c -2.548,0.057 -5.061,0.114 -7.54,0.153 v -6.207 c 2.479,-0.045 4.992,-0.105 7.54,-0.169 z m 9.45,16.547 c -2.669,0.059 -5.304,0.111 -7.906,0.156 v -6.227 c 2.602,-0.056 5.237,-0.111 7.906,-0.177 z m 9.88,-0.238 c -2.787,0.074 -5.542,0.141 -8.263,0.203 v -6.253 c 2.721,-0.069 5.476,-0.146 8.263,-0.23 z m 10.304,-0.302 c -2.904,0.091 -5.776,0.177 -8.615,0.256 v -6.286 c 2.839,-0.09 5.711,-0.187 8.615,-0.293 z m 10.712,-0.37 c -3.016,0.113 -6.002,0.215 -8.955,0.314 v -6.33 c 2.953,-0.109 5.939,-0.228 8.955,-0.357 z m 11.11,-0.448 c -3.125,0.134 -6.22,0.261 -9.286,0.378 v -6.382 c 3.066,-0.134 6.161,-0.276 9.286,-0.431 z m 11.493,-0.53 c -3.23,0.16 -6.431,0.309 -9.604,0.448 v -6.445 c 3.173,-0.161 6.374,-0.329 9.603,-0.51 0,2.17 0.001,4.339 0.001,6.507 m 11.859,-0.618 c -3.33,0.182 -6.632,0.357 -9.908,0.521 v -6.519 c 3.276,-0.187 6.578,-0.382 9.908,-0.593 z m 12.21,-0.714 c -3.426,0.211 -6.827,0.412 -10.199,0.6 v -6.604 c 3.372,-0.216 6.773,-0.445 10.199,-0.686 z m 12.539,-0.818 c -3.515,0.242 -7.006,0.471 -10.473,0.687 v -6.705 c 3.467,-0.246 6.958,-0.512 10.473,-0.782 z m 12.848,-0.925 c -3.598,0.274 -7.175,0.532 -10.729,0.779 v -6.821 c 3.554,-0.282 7.131,-0.575 10.729,-0.884 z m 13.138,-1.041 c -3.677,0.305 -7.333,0.596 -10.968,0.876 v -6.949 c 3.635,-0.319 7.291,-0.65 10.968,-0.995 z m 13.405,-1.159 c -3.749,0.336 -7.478,0.662 -11.188,0.975 v -7.094 c 3.71,-0.354 7.439,-0.723 11.188,-1.109 z m 13.648,-1.288 c -3.815,0.377 -7.611,0.735 -11.391,1.082 v -7.256 c 3.78,-0.394 7.576,-0.803 11.391,-1.229 z m 13.865,-1.418 c -3.871,0.416 -7.729,0.809 -11.57,1.192 v -7.434 c 3.841,-0.435 7.699,-0.884 11.57,-1.355 z m 14.06,-1.556 c -3.924,0.454 -7.834,0.886 -11.73,1.306 v -7.631 c 3.896,-0.476 7.806,-0.973 11.73,-1.486 z m 14.224,-1.699 c -3.968,0.491 -7.922,0.966 -11.865,1.427 v -7.849 c 3.943,-0.521 7.899,-1.058 11.865,-1.62 z m 14.366,-1.843 c -4.003,0.533 -7.995,1.047 -11.981,1.546 0,-2.694 -10e-4,-5.388 -10e-4,-8.083 3.985,-0.564 7.978,-1.153 11.981,-1.759 0,2.764 10e-4,5.53 10e-4,8.296 m 14.478,-1.996 c -4.031,0.573 -8.056,1.132 -12.072,1.673 v -8.34 c 4.016,-0.614 8.042,-1.25 12.072,-1.902 z m 14.562,-26.471 c -4.05,0.853 -8.097,1.679 -12.141,2.481 v -8.614 c 4.044,-0.883 8.091,-1.791 12.141,-2.729 z m 14.62,22.008 c -4.063,0.668 -8.127,1.31 -12.188,1.937 v -8.913 c 4.061,-0.713 8.125,-1.447 12.188,-2.202 z m 14.649,-2.474 c -4.069,0.708 -8.14,1.401 -12.208,2.073 v -9.232 c 4.068,-0.767 8.139,-1.551 12.208,-2.357 z M 13.288,269.201 C 9.221,268.646 5.152,268.08 1.083,267.495 v -9.434 c 4.069,0.678 8.138,1.339 12.205,1.984 z m 14.617,1.924 c -4.056,-0.516 -8.115,-1.046 -12.177,-1.594 v -9.102 c 4.062,0.636 8.121,1.253 12.177,1.853 z m 14.559,1.789 c -4.037,-0.479 -8.08,-0.974 -12.128,-1.483 v -8.792 c 4.048,0.591 8.09,1.17 12.128,1.725 z m 14.472,1.66 C 52.925,274.13 48.908,273.673 44.882,273.2 v -8.503 c 4.026,0.547 8.043,1.083 12.053,1.6 0,2.759 10e-4,5.517 10e-4,8.277 m 14.356,1.535 c -3.975,-0.41 -7.961,-0.833 -11.955,-1.271 v -8.234 c 3.994,0.509 7.98,1 11.955,1.478 z m 14.216,-30.203 c -3.935,-0.622 -7.88,-1.272 -11.836,-1.942 v -7.987 c 3.956,0.734 7.901,1.45 11.836,2.134 z m 14.047,32.907 c -3.884,-0.344 -7.783,-0.699 -11.694,-1.07 v -7.759 c 3.911,0.43 7.809,0.845 11.694,1.245 z m 13.852,1.179 c -3.828,-0.311 -7.67,-0.638 -11.529,-0.974 v -7.551 c 3.859,0.39 7.701,0.769 11.529,1.133 z m 13.632,1.069 c -3.764,-0.282 -7.545,-0.578 -11.344,-0.884 v -7.36 c 3.799,0.358 7.581,0.696 11.344,1.027 z m 13.388,0.962 c -3.693,-0.255 -7.406,-0.518 -11.139,-0.794 v -7.189 c 3.732,0.32 7.445,0.63 11.139,0.925 z m 13.12,0.864 c -3.617,-0.227 -7.255,-0.464 -10.914,-0.712 v -7.035 c 3.659,0.286 7.297,0.566 10.914,0.829 z m 12.829,0.766 c -3.533,-0.199 -7.09,-0.408 -10.67,-0.632 v -6.896 c 3.58,0.261 7.137,0.504 10.67,0.736 z m 12.519,0.678 c -3.445,-0.178 -6.915,-0.36 -10.409,-0.56 0,-2.255 -10e-4,-4.514 -10e-4,-6.772 3.495,0.229 6.965,0.443 10.41,0.649 z m 12.186,0.592 c -3.351,-0.155 -6.728,-0.316 -10.131,-0.488 0,-2.222 -10e-4,-4.443 -10e-4,-6.665 3.404,0.198 6.781,0.387 10.132,0.567 z m 11.836,0.512 c -3.251,-0.132 -6.532,-0.272 -9.838,-0.422 v -6.57 c 3.306,0.173 6.587,0.336 9.838,0.491 z m 11.469,0.437 c -3.148,-0.112 -6.325,-0.233 -9.532,-0.359 v -6.489 c 3.207,0.15 6.384,0.289 9.532,0.419 z m 11.084,0.369 c -3.04,-0.095 -6.11,-0.195 -9.21,-0.303 v -6.418 c 3.1,0.126 6.17,0.246 9.21,0.353 z m 10.686,0.308 c -2.927,-0.079 -5.886,-0.161 -8.876,-0.252 v -6.359 c 2.99,0.107 5.949,0.201 8.876,0.291 z m 10.276,0.249 c -2.812,-0.063 -5.658,-0.129 -8.534,-0.204 v -6.312 c 2.876,0.085 5.721,0.168 8.534,0.237 z m 9.853,0.195 c -2.694,-0.046 -5.422,-0.101 -8.182,-0.16 v -6.272 c 2.76,0.069 5.488,0.13 8.182,0.186 z m 9.421,0.15 c -2.572,-0.037 -5.18,-0.08 -7.821,-0.122 v -6.242 c 2.641,0.053 5.249,0.1 7.821,0.142 z m 8.982,0.107 c -2.451,-0.023 -4.935,-0.051 -7.454,-0.087 v -6.217 c 2.519,0.041 5.003,0.07 7.454,0.101 z m 8.536,0.07 c -2.327,-0.016 -4.687,-0.033 -7.082,-0.054 v -6.203 c 2.395,0.026 4.755,0.05 7.082,0.066 z m 8.085,0.039 c -2.201,-0.007 -4.436,-0.017 -6.706,-0.03 v -6.191 c 2.27,0.017 4.505,0.025 6.706,0.036 z m 7.633,0.012 c -2.075,0 -4.185,-0.002 -6.329,-0.008 v -6.185 c 2.144,0.006 4.254,0.01 6.329,0.01 z m 7.663,-0.014 c -2.174,0.007 -4.313,0.01 -6.417,0.013 v -6.182 c 2.104,0 4.243,-0.006 6.417,-0.016 z m 8.116,-0.041 c -2.301,0.018 -4.566,0.027 -6.796,0.038 v -6.189 c 2.23,-0.012 4.495,-0.021 6.795,-0.041 0,2.065 10e-4,4.129 10e-4,6.192 m 8.564,-0.073 c -2.425,0.027 -4.814,0.047 -7.169,0.065 v -6.195 c 2.355,-0.019 4.744,-0.041 7.169,-0.073 z m 9.01,-0.109 c -2.548,0.036 -5.061,0.072 -7.54,0.095 v -6.208 c 2.479,-0.029 4.992,-0.068 7.54,-0.109 z m 9.45,-0.151 c -2.669,0.048 -5.304,0.09 -7.906,0.129 v -6.226 c 2.602,-0.047 5.237,-0.097 7.906,-0.153 z m 9.88,-0.2 c -2.787,0.061 -5.542,0.12 -8.263,0.169 v -6.253 c 2.721,-0.055 5.476,-0.122 8.263,-0.197 z m 10.304,-0.253 c -2.904,0.074 -5.776,0.149 -8.615,0.214 v -6.287 c 2.839,-0.075 5.711,-0.161 8.615,-0.249 z m 10.712,-0.31 c -3.016,0.094 -6.002,0.183 -8.955,0.262 v -6.329 c 2.953,-0.094 5.939,-0.195 8.955,-0.305 z m 11.11,-0.374 c -3.125,0.111 -6.22,0.217 -9.286,0.316 v -6.382 c 3.066,-0.115 6.161,-0.234 9.286,-0.366 z m 9.547,-40.401 c -3.213,0.26 -6.398,0.501 -9.553,0.731 v -6.433 c 3.155,-0.251 6.339,-0.511 9.551,-0.791 0,2.164 0.002,4.328 0.002,6.493 m 13.805,39.441 c -3.33,0.153 -6.632,0.3 -9.908,0.436 v -6.518 c 3.276,-0.161 6.578,-0.329 9.908,-0.508 z m 12.21,-0.598 c -3.426,0.177 -6.827,0.343 -10.199,0.504 v -6.605 c 3.372,-0.183 6.773,-0.382 10.199,-0.586 z m 12.539,-0.682 c -3.515,0.198 -7.007,0.391 -10.473,0.577 v -6.707 c 3.467,-0.21 6.958,-0.439 10.473,-0.67 z m 12.848,-0.773 c -3.599,0.229 -7.177,0.44 -10.729,0.651 v -6.821 c 3.554,-0.238 7.131,-0.489 10.729,-0.756 z m 13.138,-0.87 c -3.677,0.255 -7.333,0.498 -10.968,0.731 v -6.948 c 3.635,-0.273 7.291,-0.557 10.968,-0.85 z m 13.405,-0.969 c -3.749,0.283 -7.478,0.552 -11.188,0.815 v -7.094 c 3.71,-0.306 7.439,-0.619 11.188,-0.949 z m 13.648,-1.076 c -3.815,0.313 -7.611,0.615 -11.391,0.903 v -7.255 c 3.78,-0.337 7.576,-0.687 11.391,-1.052 z m 13.865,-52.676 c -3.87,0.727 -7.727,1.427 -11.57,2.1 v -7.433 c 3.842,-0.729 7.7,-1.479 11.57,-2.263 z m 14.06,50.191 c -3.924,0.373 -7.834,0.74 -11.73,1.09 v -7.631 c 3.896,-0.411 7.806,-0.831 11.73,-1.271 z m 14.224,-1.421 c -3.968,0.41 -7.922,0.809 -11.865,1.191 v -7.848 c 3.943,-0.446 7.897,-0.909 11.865,-1.385 z m 14.366,-1.542 c -4.003,0.446 -7.995,0.88 -11.981,1.294 0,-2.696 -10e-4,-5.389 -10e-4,-8.083 3.984,-0.486 7.978,-0.992 11.981,-1.506 0,2.764 10e-4,5.53 10e-4,8.295 m 14.478,-1.669 c -4.031,0.478 -8.056,0.948 -12.072,1.4 v -8.34 c 4.016,-0.525 8.042,-1.067 12.072,-1.627 z m 14.562,-1.799 c -4.051,0.519 -8.097,1.023 -12.141,1.509 v -8.615 c 4.044,-0.567 8.09,-1.152 12.141,-1.754 z m 14.62,-1.931 c -4.064,0.557 -8.127,1.094 -12.188,1.619 v -8.913 c 4.061,-0.61 8.125,-1.235 12.188,-1.884 z m 14.649,-2.067 c -4.069,0.593 -8.14,1.168 -12.208,1.732 v -9.232 c 4.068,-0.656 8.139,-1.325 12.208,-2.017 z M 9.893,198.981 c -4.071,-1.258 -8.141,-2.547 -12.208,-3.873 v -9.515 c 4.067,1.422 8.137,2.805 12.208,4.157 z m 18.012,82.752 c -4.056,-0.415 -8.115,-0.838 -12.177,-1.28 v -9.101 c 4.062,0.528 8.121,1.044 12.177,1.542 z m 14.559,1.439 c -4.037,-0.385 -8.08,-0.78 -12.128,-1.191 v -8.792 c 4.048,0.495 8.091,0.97 12.128,1.436 z m 14.472,1.335 c -4.01,-0.357 -8.028,-0.727 -12.054,-1.106 V 274.9 c 4.026,0.456 8.043,0.902 12.053,1.33 0,2.758 10e-4,5.517 10e-4,8.277 m 14.356,1.232 c -3.975,-0.331 -7.961,-0.668 -11.955,-1.021 v -8.233 c 3.995,0.421 7.98,0.833 11.955,1.23 z m 14.216,1.135 c -3.934,-0.302 -7.88,-0.615 -11.836,-0.938 v -7.986 c 3.956,0.387 7.902,0.767 11.836,1.13 z m 14.047,1.039 c -3.884,-0.275 -7.783,-0.559 -11.694,-0.859 v -7.759 c 3.911,0.358 7.81,0.7 11.694,1.035 z m 13.852,0.947 c -3.827,-0.248 -7.67,-0.511 -11.529,-0.784 v -7.548 c 3.859,0.325 7.702,0.641 11.529,0.942 z m 13.632,0.86 c -3.764,-0.227 -7.545,-0.463 -11.344,-0.71 v -7.36 c 3.799,0.296 7.581,0.579 11.344,0.854 z m 13.388,0.773 c -3.693,-0.203 -7.407,-0.415 -11.139,-0.639 v -7.188 c 3.733,0.266 7.446,0.523 11.139,0.77 z m 13.12,0.694 c -3.617,-0.18 -7.255,-0.374 -10.914,-0.573 v -7.033 c 3.659,0.241 7.297,0.472 10.914,0.689 z m 12.829,0.616 c -3.533,-0.16 -7.09,-0.329 -10.67,-0.509 v -6.895 c 3.58,0.215 7.137,0.419 10.67,0.613 z m 12.519,0.545 c -3.445,-0.142 -6.915,-0.292 -10.409,-0.45 0,-2.256 -10e-4,-4.513 -10e-4,-6.771 3.495,0.188 6.965,0.369 10.41,0.54 z m 12.186,0.475 c -3.351,-0.125 -6.727,-0.255 -10.131,-0.391 0,-2.221 -10e-4,-4.443 -10e-4,-6.664 3.404,0.166 6.781,0.32 10.132,0.471 z m 11.836,-32.667 c -3.251,-0.213 -6.532,-0.446 -9.838,-0.69 v -6.57 c 3.306,0.267 6.587,0.523 9.838,0.759 z m 11.469,33.431 c -3.148,-0.091 -6.325,-0.189 -9.532,-0.289 v -6.487 c 3.207,0.123 6.384,0.24 9.532,0.348 z m 11.084,0.298 c -3.04,-0.076 -6.11,-0.16 -9.21,-0.244 v -6.418 c 3.1,0.104 6.17,0.205 9.21,0.293 z m 10.686,0.244 c -2.927,-0.062 -5.886,-0.129 -8.876,-0.2 v -6.36 c 2.99,0.088 5.949,0.168 8.876,0.244 z m 10.276,0.201 c -2.812,-0.05 -5.658,-0.105 -8.534,-0.163 v -6.312 c 2.876,0.07 5.721,0.138 8.534,0.198 z m 9.853,0.158 c -2.694,-0.04 -5.422,-0.084 -8.182,-0.129 v -6.271 c 2.76,0.055 5.488,0.108 8.182,0.154 z m 9.421,0.119 c -2.572,-0.029 -5.18,-0.06 -7.821,-0.097 v -6.24 c 2.641,0.045 5.249,0.081 7.821,0.118 z m 8.982,0.086 c -2.451,-0.018 -4.935,-0.043 -7.454,-0.069 v -6.218 c 2.519,0.032 5.003,0.063 7.454,0.085 z m 8.536,0.058 c -2.327,-0.011 -4.687,-0.026 -7.082,-0.046 v -6.2 c 2.395,0.023 4.755,0.038 7.082,0.055 z m 8.085,-35.226 c -2.201,-0.01 -4.436,-0.027 -6.706,-0.052 v -6.191 c 2.27,0.024 4.505,0.044 6.706,0.058 z m 7.633,35.267 c -2.075,0 -4.185,-0.005 -6.329,-0.008 V 288.6 c 2.144,0.004 4.254,0.007 6.329,0.007 z m 7.663,-0.012 c -2.174,0.004 -4.313,0.011 -6.417,0.011 v -6.185 c 2.104,0 4.243,-0.003 6.417,-0.01 z m 8.116,-0.032 c -2.301,0.014 -4.566,0.023 -6.796,0.029 v -6.186 c 2.23,-0.009 4.495,-0.019 6.795,-0.034 0,2.063 10e-4,4.127 10e-4,6.191 m 8.564,-0.058 c -2.425,0.022 -4.814,0.037 -7.169,0.049 v -6.193 c 2.355,-0.016 4.744,-0.037 7.169,-0.062 z m 9.01,-0.089 c -2.548,0.029 -5.061,0.053 -7.54,0.076 v -6.207 c 2.479,-0.027 4.992,-0.055 7.54,-0.091 z m 9.45,-0.123 c -2.669,0.04 -5.304,0.072 -7.906,0.105 v -6.226 c 2.602,-0.04 5.237,-0.08 7.906,-0.126 z m 9.88,-0.16 c -2.787,0.052 -5.542,0.094 -8.263,0.136 v -6.252 c 2.721,-0.049 5.476,-0.105 8.263,-0.164 z m 10.304,-0.203 c -2.904,0.063 -5.776,0.119 -8.615,0.172 v -6.286 c 2.839,-0.065 5.711,-0.131 8.615,-0.207 z m 10.712,-0.25 c -3.016,0.077 -6.002,0.147 -8.955,0.213 v -6.329 c 2.953,-0.079 5.939,-0.163 8.955,-0.254 z m 11.11,-0.299 c -3.125,0.088 -6.22,0.175 -9.286,0.253 v -6.381 c 3.066,-0.095 6.161,-0.198 9.286,-0.305 z m 11.493,-0.355 c -3.23,0.107 -6.431,0.205 -9.604,0.299 v -6.444 c 3.173,-0.112 6.374,-0.23 9.603,-0.362 0,2.17 0.001,4.338 0.001,6.507 m 11.859,-0.416 c -3.33,0.123 -6.632,0.238 -9.908,0.35 v -6.519 c 3.276,-0.131 6.578,-0.272 9.908,-0.421 z m 12.21,-0.481 c -3.426,0.142 -6.827,0.276 -10.199,0.406 v -6.606 c 3.372,-0.151 6.773,-0.319 10.199,-0.487 z m 12.539,-37.417 c -3.515,0.338 -7.006,0.665 -10.473,0.971 v -6.705 c 3.467,-0.337 6.958,-0.693 10.473,-1.064 z m 12.848,36.248 c -3.599,0.181 -7.177,0.359 -10.729,0.522 v -6.818 c 3.552,-0.202 7.131,-0.409 10.729,-0.63 z m 13.138,-0.7 c -3.677,0.206 -7.333,0.401 -10.968,0.589 v -6.949 c 3.635,-0.224 7.291,-0.46 10.968,-0.707 z m 13.405,-0.779 c -3.749,0.229 -7.478,0.444 -11.188,0.656 v -7.093 c 3.71,-0.254 7.439,-0.515 11.188,-0.79 z m 13.648,-0.865 c -3.815,0.254 -7.611,0.498 -11.391,0.728 v -7.256 c 3.78,-0.278 7.576,-0.569 11.391,-0.874 z m 13.865,-0.953 c -3.871,0.277 -7.729,0.547 -11.57,0.801 v -7.434 c 3.841,-0.31 7.699,-0.629 11.57,-0.964 z m 14.06,-1.044 c -3.924,0.302 -7.834,0.594 -11.73,0.877 v -7.631 c 3.896,-0.341 7.806,-0.693 11.73,-1.057 z m 14.224,-1.142 c -3.968,0.33 -7.922,0.648 -11.865,0.957 v -7.847 c 3.943,-0.372 7.897,-0.753 11.865,-1.151 z m 14.366,-1.24 c -4.003,0.359 -7.997,0.704 -11.981,1.041 0,-2.694 -10e-4,-5.388 -10e-4,-8.082 3.984,-0.402 7.978,-0.821 11.981,-1.251 0,2.764 10e-4,5.528 10e-4,8.292 m 14.478,-1.34 c -4.031,0.389 -8.056,0.762 -12.072,1.124 v -8.338 c 4.016,-0.435 8.041,-0.889 12.072,-1.353 z m 14.562,-1.445 c -4.051,0.417 -8.098,0.821 -12.141,1.212 v -8.615 c 4.043,-0.473 8.09,-0.958 12.141,-1.46 z m 14.62,-1.552 c -4.064,0.448 -8.127,0.88 -12.188,1.3 v -8.912 c 4.061,-0.506 8.124,-1.029 12.188,-1.566 z m 14.649,-1.662 c -4.069,0.478 -8.14,0.943 -12.208,1.391 v -9.231 c 4.068,-0.544 8.139,-1.102 12.208,-1.675 z M 13.288,291.177 C 9.221,290.84 5.152,290.496 1.083,290.139 v -9.434 c 4.069,0.446 8.138,0.887 12.205,1.316 z m 14.617,1.167 c -4.056,-0.312 -8.115,-0.635 -12.177,-0.967 v -9.104 c 4.062,0.422 8.121,0.831 12.177,1.231 z m 14.559,1.088 c -4.037,-0.291 -8.08,-0.59 -12.128,-0.902 v -8.79 c 4.048,0.391 8.091,0.774 12.128,1.143 z m 14.472,1.008 c -4.01,-0.272 -8.028,-0.548 -12.054,-0.836 v -8.501 c 4.026,0.365 8.043,0.716 12.053,1.059 0,2.76 10e-4,5.519 10e-4,8.278 m 14.356,0.93 c -3.975,-0.248 -7.96,-0.503 -11.955,-0.769 v -8.235 c 3.995,0.336 7.98,0.661 11.955,0.979 z m 14.216,0.859 C 81.575,296 77.629,295.76 73.672,295.519 v -7.987 c 3.956,0.312 7.902,0.614 11.836,0.903 z m 14.047,0.785 c -3.884,-0.209 -7.782,-0.425 -11.694,-0.65 v -7.759 c 3.912,0.288 7.81,0.56 11.694,0.826 z m 13.852,0.715 c -3.827,-0.19 -7.67,-0.386 -11.529,-0.591 v -7.55 c 3.859,0.258 7.702,0.513 11.529,0.751 z m 13.632,0.65 c -3.763,-0.17 -7.545,-0.352 -11.344,-0.536 v -7.362 c 3.799,0.239 7.581,0.461 11.344,0.681 z m 13.388,0.585 c -3.693,-0.154 -7.406,-0.313 -11.139,-0.485 v -7.187 c 3.733,0.212 7.446,0.417 11.139,0.613 z m 13.12,0.523 c -3.617,-0.136 -7.255,-0.282 -10.914,-0.431 v -7.035 c 3.659,0.193 7.297,0.376 10.914,0.549 z m 12.829,0.467 c -3.533,-0.121 -7.09,-0.252 -10.67,-0.384 v -6.896 c 3.58,0.17 7.137,0.335 10.67,0.489 z m 12.519,0.411 c -3.445,-0.105 -6.915,-0.221 -10.409,-0.339 0,-2.257 -10e-4,-4.514 -10e-4,-6.772 3.495,0.149 6.965,0.293 10.41,0.43 z m 12.186,0.359 c -3.351,-0.092 -6.727,-0.192 -10.131,-0.296 0,-2.22 -10e-4,-4.442 -10e-4,-6.664 3.404,0.134 6.781,0.257 10.132,0.377 z m 11.836,0.312 c -3.251,-0.086 -6.532,-0.172 -9.838,-0.256 v -6.569 c 3.306,0.114 6.587,0.223 9.838,0.324 z m 11.469,0.265 c -3.148,-0.072 -6.325,-0.139 -9.532,-0.218 v -6.487 c 3.207,0.096 6.384,0.188 9.532,0.277 z m 11.084,0.225 c -3.04,-0.058 -6.11,-0.119 -9.21,-0.184 v -6.418 c 3.1,0.085 6.17,0.162 9.21,0.234 z m 10.686,0.186 c -2.927,-0.052 -5.886,-0.093 -8.876,-0.153 V 295.2 c 2.99,0.072 5.949,0.135 8.876,0.195 z m 10.276,0.151 c -2.812,-0.032 -5.658,-0.085 -8.534,-0.123 v -6.311 c 2.876,0.055 5.721,0.11 8.534,0.156 z m 9.853,0.119 c -2.694,-0.033 -5.422,-0.064 -8.182,-0.097 v -6.272 c 2.76,0.045 5.488,0.084 8.182,0.124 z m 9.421,0.091 c -2.572,-0.026 -5.18,-0.041 -7.821,-0.074 v -6.24 c 2.641,0.035 5.249,0.064 7.821,0.094 z m 8.982,0.066 c -2.449,-0.021 -4.935,-0.028 -7.454,-0.054 v -6.218 c 2.519,0.027 5.003,0.048 7.454,0.068 z m 8.536,0.042 c -2.327,-0.006 -4.687,-0.022 -7.082,-0.034 v -6.201 c 2.395,0.016 4.755,0.03 7.082,0.043 z m 8.085,0.024 c -2.201,-0.007 -4.436,-0.006 -6.706,-0.018 v -6.191 c 2.27,0.01 4.505,0.017 6.706,0.024 z m 7.633,0.006 c -2.075,0 -4.185,0.003 -6.329,-0.004 v -6.186 c 2.144,0.004 4.254,0.007 6.329,0.007 z m 7.663,-0.007 c -2.174,0.006 -4.313,0.007 -6.417,0.007 v -6.183 c 2.104,-0.003 4.243,-0.003 6.417,-0.009 z m 8.116,-55.138 c -2.301,0.034 -4.566,0.056 -6.796,0.075 v -6.187 c 2.23,-0.02 4.495,-0.045 6.795,-0.08 0,2.064 10e-4,4.129 10e-4,6.192 m 8.564,55.068 c -2.425,0.013 -4.814,0.025 -7.169,0.039 v -6.194 c 2.355,-0.013 4.744,-0.03 7.169,-0.048 z m 9.01,-0.066 c -2.548,0.026 -5.061,0.044 -7.54,0.057 v -6.206 c 2.479,-0.021 4.992,-0.048 7.54,-0.073 z m 9.45,-0.093 c -2.669,0.026 -5.304,0.053 -7.906,0.079 v -6.226 c 2.602,-0.029 5.237,-0.064 7.906,-0.1 z m 9.88,-51.826 c -2.787,0.122 -5.542,0.234 -8.263,0.332 v -6.252 c 2.722,-0.105 5.476,-0.23 8.263,-0.36 z m 10.304,51.553 c -2.904,0.051 -5.776,0.089 -8.615,0.129 v -6.286 c 2.839,-0.05 5.711,-0.103 8.615,-0.164 z m 10.712,-0.188 c -3.016,0.058 -6.002,0.112 -8.955,0.158 v -6.329 c 2.953,-0.062 5.939,-0.13 8.955,-0.202 z m 11.11,-0.228 c -3.125,0.071 -6.22,0.132 -9.286,0.192 v -6.382 c 3.066,-0.075 6.161,-0.158 9.286,-0.243 z m 11.493,-0.269 c -3.23,0.078 -6.431,0.155 -9.604,0.227 v -6.445 c 3.173,-0.088 6.374,-0.187 9.603,-0.287 0,2.168 0.001,4.337 0.001,6.505 m 11.859,-0.315 c -3.33,0.091 -6.632,0.181 -9.908,0.265 v -6.518 c 3.276,-0.105 6.578,-0.216 9.908,-0.337 z m 12.21,-0.362 c -3.426,0.104 -6.827,0.207 -10.199,0.306 v -6.606 c 3.372,-0.121 6.773,-0.251 10.199,-0.387 z m 12.539,-0.415 c -3.515,0.123 -7.007,0.238 -10.473,0.348 v -6.704 c 3.466,-0.141 6.958,-0.29 10.473,-0.443 z m 12.848,-0.469 c -3.599,0.137 -7.177,0.27 -10.729,0.395 v -6.82 c 3.552,-0.16 7.13,-0.326 10.729,-0.502 z m 13.138,-0.528 c -3.677,0.156 -7.333,0.301 -10.968,0.444 v -6.949 c 3.635,-0.182 7.291,-0.367 10.968,-0.565 z m 13.405,-0.59 c -3.749,0.174 -7.478,0.338 -11.188,0.495 v -7.093 c 3.71,-0.2 7.439,-0.41 11.188,-0.629 z m 13.648,-0.652 c -3.815,0.189 -7.611,0.375 -11.391,0.548 v -7.255 c 3.78,-0.219 7.576,-0.454 11.391,-0.697 z m 13.865,-0.72 c -3.871,0.206 -7.729,0.411 -11.57,0.604 v -7.434 c 3.841,-0.245 7.699,-0.502 11.57,-0.767 z m 14.06,-0.791 c -3.924,0.23 -7.834,0.45 -11.73,0.664 v -7.632 c 3.896,-0.269 7.806,-0.553 11.73,-0.842 z m 14.224,-0.862 c -3.968,0.25 -7.922,0.488 -11.865,0.722 v -7.846 c 3.943,-0.297 7.897,-0.601 11.865,-0.917 z m 14.366,-0.937 c -4.003,0.27 -7.997,0.53 -11.981,0.785 0,-2.693 -10e-4,-5.388 -10e-4,-8.081 3.984,-0.32 7.978,-0.654 11.981,-0.999 0,2.766 10e-4,5.531 10e-4,8.295 m 14.478,-1.014 c -4.031,0.291 -8.056,0.576 -12.072,0.851 v -8.338 c 4.016,-0.348 8.041,-0.707 12.072,-1.079 z m 14.562,-1.091 c -4.051,0.312 -8.098,0.619 -12.141,0.915 v -8.614 c 4.043,-0.376 8.09,-0.765 12.141,-1.164 z m 14.62,-1.174 c -4.064,0.339 -8.127,0.667 -12.188,0.983 v -8.911 c 4.061,-0.406 8.124,-0.818 12.188,-1.248 z m 14.649,-1.256 c -4.07,0.362 -8.14,0.711 -12.208,1.054 v -9.234 c 4.068,-0.432 8.138,-0.879 12.208,-1.334 z M 13.288,302.165 c -4.066,-0.23 -8.136,-0.459 -12.205,-0.703 v -9.436 c 4.069,0.334 8.139,0.662 12.205,0.981 z m 14.617,0.79 C 23.85,302.74 19.791,302.521 15.728,302.3 v -9.103 c 4.063,0.313 8.121,0.618 12.177,0.915 z m 14.559,0.735 c -4.037,-0.195 -8.08,-0.399 -12.128,-0.609 v -8.792 c 4.048,0.294 8.091,0.577 12.128,0.852 z m 14.472,0.683 c -4.01,-0.185 -8.028,-0.37 -12.054,-0.565 v -8.502 c 4.026,0.269 8.043,0.534 12.053,0.789 0,2.759 10e-4,5.518 10e-4,8.278 m 14.356,0.63 c -3.975,-0.163 -7.959,-0.346 -11.955,-0.522 v -8.233 c 3.995,0.25 7.98,0.492 11.955,0.729 z m 14.216,0.58 c -3.933,-0.157 -7.879,-0.317 -11.836,-0.479 v -7.988 c 3.957,0.229 7.903,0.455 11.836,0.671 z m 14.047,0.532 c -3.884,-0.137 -7.782,-0.289 -11.694,-0.44 v -7.759 c 3.912,0.213 7.81,0.415 11.694,0.615 z m 13.852,0.485 c -3.827,-0.132 -7.67,-0.265 -11.529,-0.401 v -7.552 c 3.859,0.193 7.702,0.38 11.529,0.561 z m 13.632,0.439 c -3.763,-0.111 -7.545,-0.239 -11.344,-0.363 v -7.361 c 3.799,0.175 7.581,0.343 11.344,0.506 z m 13.388,0.396 c -3.693,-0.105 -7.406,-0.216 -11.139,-0.327 v -7.19 c 3.733,0.157 7.446,0.313 11.139,0.457 z m 13.12,0.354 c -3.617,-0.091 -7.255,-0.194 -10.914,-0.292 v -7.035 c 3.659,0.143 7.297,0.279 10.914,0.409 z m 12.829,0.315 c -3.533,-0.077 -7.09,-0.168 -10.67,-0.26 v -6.895 c 3.58,0.129 7.137,0.244 10.67,0.364 z m 12.519,0.278 c -3.445,-0.07 -6.915,-0.151 -10.409,-0.228 0,-2.258 -10e-4,-4.515 -10e-4,-6.773 3.495,0.111 6.965,0.223 10.41,0.321 z m 12.186,0.245 c -3.351,-0.066 -6.727,-0.129 -10.131,-0.201 0,-2.222 -10e-4,-4.443 -10e-4,-6.665 3.404,0.097 6.781,0.188 10.132,0.281 z m 11.836,0.21 c -3.251,-0.054 -6.532,-0.108 -9.838,-0.174 v -6.569 c 3.306,0.085 6.587,0.169 9.838,0.242 z m 11.469,0.18 c -3.148,-0.046 -6.325,-0.097 -9.532,-0.148 v -6.488 c 3.207,0.072 6.384,0.141 9.532,0.206 z m 11.084,0.151 c -3.04,-0.039 -6.11,-0.085 -9.21,-0.124 v -6.419 c 3.1,0.059 6.17,0.122 9.21,0.175 z m 10.686,0.127 c -2.927,-0.033 -5.886,-0.072 -8.876,-0.104 v -6.36 c 2.99,0.053 5.949,0.099 8.876,0.145 z m 10.276,0.102 c -2.812,-0.026 -5.658,-0.051 -8.534,-0.084 v -6.312 c 2.876,0.046 5.721,0.085 8.534,0.118 z m 9.853,0.08 c -2.694,-0.019 -5.422,-0.046 -8.182,-0.065 v -6.272 c 2.76,0.031 5.488,0.066 8.182,0.091 z m 9.421,0.062 c -2.572,-0.014 -5.18,-0.038 -7.821,-0.05 v -6.241 c 2.641,0.025 5.249,0.049 7.821,0.07 z m 8.982,0.044 c -2.451,-0.007 -4.935,-0.022 -7.454,-0.035 v -6.219 c 2.519,0.021 5.005,0.031 7.454,0.05 z m 8.536,0.029 c -2.327,0 -4.687,-0.01 -7.082,-0.023 v -6.201 c 2.395,0.012 4.755,0.025 7.082,0.031 z m 8.085,0.017 c -2.201,-0.007 -4.436,-0.007 -6.706,-0.014 v -6.19 c 2.27,0.006 4.505,0.017 6.706,0.017 z m 7.633,0.004 c -2.075,0 -4.185,-0.004 -6.329,-0.004 v -6.186 c 2.144,0.007 4.254,0.006 6.329,0.006 z m 7.663,-0.007 c -2.174,0.007 -4.313,0.007 -6.417,0.007 v -6.184 c 2.104,0 4.243,-0.002 6.417,-0.008 z m 8.116,-0.016 c -2.301,0.008 -4.566,0.009 -6.796,0.015 v -6.186 c 2.23,-0.007 4.495,-0.015 6.795,-0.021 0,2.064 10e-4,4.129 10e-4,6.192 m 8.564,-0.029 c -2.425,0.007 -4.814,0.019 -7.169,0.025 v -6.193 c 2.355,-0.014 4.744,-0.017 7.169,-0.037 z m 9.01,-0.046 c -2.548,0.013 -5.061,0.027 -7.54,0.039 v -6.207 c 2.479,-0.014 4.992,-0.035 7.54,-0.055 z m 9.45,-0.063 c -2.669,0.021 -5.304,0.042 -7.906,0.054 v -6.225 c 2.602,-0.028 5.237,-0.044 7.906,-0.076 z m 9.88,-0.082 c -2.787,0.027 -5.542,0.051 -8.263,0.07 v -6.252 c 2.721,-0.026 5.476,-0.065 8.263,-0.097 z m 10.304,-0.103 c -2.904,0.032 -5.776,0.055 -8.615,0.088 v -6.287 c 2.839,-0.039 5.711,-0.076 8.615,-0.122 z m 10.712,-0.128 c -3.016,0.039 -6.002,0.077 -8.955,0.109 v -6.33 c 2.953,-0.045 5.939,-0.098 8.955,-0.15 z m 11.11,-0.153 c -3.125,0.052 -6.22,0.09 -9.286,0.129 v -6.381 c 3.066,-0.052 6.161,-0.116 9.286,-0.181 z m 11.493,-0.182 c -3.23,0.053 -6.431,0.109 -9.604,0.154 v -6.445 c 3.173,-0.065 6.374,-0.143 9.603,-0.215 0,2.169 0.001,4.336 0.001,6.506 m 11.859,-0.212 c -3.33,0.065 -6.632,0.126 -9.908,0.178 v -6.519 c 3.276,-0.078 6.578,-0.159 9.908,-0.25 z m 12.21,-0.247 c -3.426,0.072 -6.827,0.143 -10.199,0.208 v -6.606 c 3.372,-0.092 6.773,-0.185 10.199,-0.289 z m 12.539,-0.28 c -3.515,0.084 -7.007,0.165 -10.473,0.237 v -6.707 c 3.466,-0.105 6.958,-0.212 10.473,-0.33 z m 12.848,-0.317 c -3.599,0.097 -7.177,0.182 -10.729,0.267 v -6.82 c 3.552,-0.119 7.13,-0.244 10.729,-0.375 z m 13.138,-0.357 c -3.677,0.104 -7.333,0.201 -10.968,0.299 v -6.948 c 3.635,-0.133 7.291,-0.277 10.968,-0.421 z m 13.405,-0.4 c -3.749,0.111 -7.478,0.23 -11.188,0.336 v -7.094 c 3.71,-0.152 7.439,-0.309 11.188,-0.47 z m 13.648,-0.442 c -3.815,0.131 -7.612,0.253 -11.391,0.371 v -7.255 c 3.78,-0.164 7.576,-0.339 11.391,-0.518 z m 13.865,-0.487 c -3.871,0.143 -7.729,0.279 -11.57,0.409 v -7.434 c 3.841,-0.183 7.699,-0.375 11.57,-0.574 z m 14.06,-0.535 c -3.924,0.157 -7.834,0.311 -11.73,0.449 v -7.632 c 3.896,-0.2 7.806,-0.412 11.73,-0.627 z m 14.224,-0.584 c -3.968,0.17 -7.922,0.327 -11.865,0.491 v -7.849 c 3.943,-0.219 7.897,-0.445 11.865,-0.684 z m 14.366,-0.633 c -4.003,0.183 -7.997,0.361 -11.981,0.531 0,-2.694 -10e-4,-5.388 -10e-4,-8.083 3.984,-0.238 7.978,-0.489 11.981,-0.743 0,2.766 10e-4,5.53 10e-4,8.295 m 14.478,-0.686 c -4.032,0.196 -8.056,0.391 -12.072,0.575 v -8.339 c 4.016,-0.262 8.04,-0.53 12.072,-0.804 z m 14.562,-0.74 c -4.051,0.216 -8.1,0.418 -12.141,0.62 v -8.614 c 4.043,-0.281 8.09,-0.568 12.141,-0.867 z m 14.62,-0.793 c -4.064,0.229 -8.127,0.451 -12.188,0.665 v -8.913 c 4.061,-0.3 8.124,-0.611 12.188,-0.93 z m 14.649,-0.85 c -4.07,0.248 -8.14,0.485 -12.208,0.713 v -9.234 c 4.068,-0.322 8.138,-0.653 12.208,-0.996 z M 13.288,313.152 C 9.222,313.033 5.152,312.91 1.083,312.785 v -9.435 c 4.069,0.221 8.139,0.435 12.205,0.644 z m 14.617,0.412 c -4.055,-0.11 -8.114,-0.225 -12.177,-0.341 v -9.103 c 4.063,0.208 8.122,0.407 12.177,0.602 z m 14.559,0.384 c -4.037,-0.104 -8.08,-0.207 -12.128,-0.318 v -8.791 c 4.048,0.195 8.091,0.377 12.128,0.561 z m 14.472,0.357 c -4.01,-0.098 -8.028,-0.197 -12.054,-0.294 v -8.504 c 4.026,0.183 8.043,0.35 12.053,0.52 0,2.76 10e-4,5.518 10e-4,8.278 m 14.356,0.329 c -3.975,-0.092 -7.959,-0.181 -11.955,-0.271 v -8.236 c 3.996,0.164 7.98,0.324 11.955,0.482 z m 14.216,0.304 c -3.933,-0.079 -7.879,-0.166 -11.836,-0.251 V 306.7 c 3.957,0.15 7.903,0.299 11.836,0.443 z m 14.047,0.277 c -3.884,-0.071 -7.782,-0.152 -11.694,-0.229 v -7.76 c 3.912,0.137 7.81,0.274 11.694,0.405 z m 13.852,0.253 c -3.827,-0.065 -7.67,-0.137 -11.529,-0.209 v -7.551 c 3.859,0.125 7.702,0.251 11.529,0.369 z m 13.632,0.23 c -3.763,-0.058 -7.545,-0.125 -11.344,-0.19 v -7.36 c 3.799,0.117 7.581,0.228 11.344,0.332 z m 13.388,0.207 c -3.693,-0.052 -7.406,-0.113 -11.139,-0.171 v -7.189 c 3.733,0.104 7.446,0.203 11.139,0.301 z m 13.12,0.186 c -3.617,-0.047 -7.255,-0.102 -10.914,-0.154 v -7.035 c 3.659,0.098 7.297,0.179 10.914,0.271 z m 12.829,0.163 c -3.533,-0.046 -7.09,-0.09 -10.67,-0.136 v -6.895 c 3.58,0.078 7.137,0.167 10.67,0.239 z m 12.519,0.146 c -3.445,-0.04 -6.915,-0.074 -10.409,-0.12 0,-2.258 -10e-4,-4.515 -10e-4,-6.772 3.495,0.077 6.965,0.146 10.41,0.211 z m 12.186,0.127 c -3.351,-0.033 -6.727,-0.065 -10.131,-0.105 0,-2.221 -10e-4,-4.442 -10e-4,-6.664 3.404,0.065 6.781,0.133 10.132,0.185 z m 11.836,0.11 c -3.251,-0.026 -6.532,-0.057 -9.838,-0.09 v -6.569 c 3.306,0.052 6.587,0.112 9.838,0.158 z m 11.469,0.095 c -3.148,-0.027 -6.325,-0.053 -9.532,-0.078 v -6.488 c 3.207,0.053 6.384,0.097 9.532,0.136 z m 11.084,0.08 c -3.04,-0.022 -6.11,-0.04 -9.21,-0.066 v -6.419 c 3.1,0.039 6.17,0.082 9.21,0.114 z m 10.686,0.064 c -2.927,-0.02 -5.886,-0.033 -8.876,-0.054 v -6.36 c 2.99,0.033 5.949,0.07 8.876,0.096 z m 10.276,0.054 c -2.812,-0.013 -5.658,-0.031 -8.534,-0.044 v -6.311 c 2.876,0.027 5.722,0.057 8.534,0.076 z m 9.853,0.042 c -2.694,-0.013 -5.422,-0.021 -8.182,-0.034 v -6.272 c 2.76,0.025 5.488,0.041 8.182,0.06 z m 9.421,0.032 c -2.572,-0.007 -5.18,-0.013 -7.821,-0.026 v -6.241 c 2.641,0.018 5.249,0.033 7.821,0.045 z m 8.982,0.024 c -2.451,-0.008 -4.935,-0.013 -7.454,-0.02 v -6.217 c 2.519,0.013 5.003,0.026 7.454,0.032 z m 8.536,0.014 c -2.327,-0.006 -4.687,-0.005 -7.082,-0.012 v -6.201 c 2.395,0.012 4.755,0.015 7.082,0.022 z m 8.085,0.009 c -2.201,0 -4.436,0 -6.706,-0.006 v -6.192 c 2.27,0.006 4.505,0.005 6.706,0.012 z m 7.633,0.002 c -2.075,0 -4.185,-10e-4 -6.329,-10e-4 v -6.187 c 2.144,0 4.254,0.005 6.329,0.005 z m 7.663,-0.004 c -2.174,0.008 -4.313,0.004 -6.417,0.004 v -6.183 c 2.104,0 4.243,0 6.417,-0.006 z m 8.116,-0.007 c -2.301,0.006 -4.566,0.007 -6.796,0.007 v -6.186 c 2.23,0 4.495,-0.008 6.795,-0.015 0,2.066 10e-4,4.13 10e-4,6.194 m 8.564,-0.015 c -2.425,0.005 -4.814,0.007 -7.169,0.012 v -6.194 c 2.355,-0.007 4.744,-0.011 7.169,-0.024 z m 9.01,-0.024 c -2.548,0.005 -5.061,0.014 -7.54,0.019 v -6.207 c 2.479,-0.013 4.992,-0.023 7.54,-0.037 z m 9.45,-0.033 c -2.669,0.005 -5.304,0.014 -7.906,0.027 v -6.226 c 2.602,-0.013 5.237,-0.03 7.906,-0.05 z m 9.88,-0.044 c -2.787,0.014 -5.542,0.024 -8.263,0.038 v -6.254 c 2.721,-0.019 5.476,-0.038 8.263,-0.064 z m 10.304,-0.053 c -2.904,0.012 -5.776,0.033 -8.615,0.045 v -6.286 c 2.839,-0.02 5.711,-0.048 8.615,-0.081 z m 10.712,-0.067 c -3.016,0.027 -6.002,0.044 -8.955,0.056 v -6.329 c 2.953,-0.027 5.939,-0.067 8.955,-0.099 z m 11.11,-0.081 c -3.125,0.027 -6.22,0.049 -9.286,0.068 v -6.381 c 3.066,-0.04 6.161,-0.08 9.286,-0.12 z m 11.493,-0.095 c -3.23,0.026 -6.431,0.061 -9.604,0.08 v -6.443 c 3.172,-0.046 6.374,-0.097 9.603,-0.143 0,2.169 0.001,4.337 0.001,6.506 m 11.859,-0.11 c -3.33,0.032 -6.632,0.06 -9.908,0.093 v -6.519 c 3.276,-0.052 6.578,-0.106 9.908,-0.165 z m 12.21,-0.128 c -3.426,0.038 -6.827,0.075 -10.199,0.107 v -6.605 c 3.372,-0.066 6.773,-0.126 10.199,-0.192 z m 12.539,-0.148 c -3.515,0.047 -7.007,0.085 -10.473,0.125 v -6.707 c 3.466,-0.072 6.958,-0.14 10.473,-0.217 z m 12.848,-0.166 c -3.599,0.053 -7.177,0.094 -10.729,0.141 v -6.821 c 3.552,-0.079 7.13,-0.161 10.729,-0.246 z m 13.138,-0.186 c -3.677,0.052 -7.333,0.111 -10.968,0.156 V 309.1 c 3.635,-0.092 7.291,-0.18 10.968,-0.277 z m 13.405,-0.208 c -3.749,0.058 -7.478,0.115 -11.188,0.175 v -7.094 c 3.71,-0.099 7.439,-0.204 11.188,-0.31 z m 13.648,-0.231 c -3.815,0.071 -7.612,0.135 -11.391,0.194 v -7.256 c 3.779,-0.112 7.576,-0.224 11.391,-0.341 z m 13.865,-0.255 c -3.872,0.071 -7.729,0.148 -11.57,0.214 v -7.434 c 3.841,-0.118 7.699,-0.247 11.57,-0.377 z m 14.06,-0.28 c -3.924,0.086 -7.834,0.157 -11.73,0.236 v -7.632 c 3.896,-0.132 7.806,-0.271 11.73,-0.414 z m 14.224,-0.305 c -3.968,0.092 -7.922,0.179 -11.865,0.256 v -7.847 c 3.943,-0.15 7.897,-0.301 11.865,-0.451 z m 14.366,-0.33 c -4.003,0.097 -7.997,0.186 -11.981,0.278 0,-2.695 -10e-4,-5.389 -10e-4,-8.083 3.984,-0.157 7.978,-0.321 11.981,-0.49 0,2.764 10e-4,5.529 10e-4,8.295 m 14.478,-0.359 c -4.031,0.104 -8.056,0.202 -12.072,0.301 v -8.34 c 4.016,-0.169 8.04,-0.352 12.072,-0.529 z m 14.562,-0.386 c -4.051,0.111 -8.1,0.219 -12.141,0.324 v -8.614 c 4.041,-0.184 8.09,-0.376 12.141,-0.572 z m 14.62,-0.415 c -4.065,0.118 -8.128,0.237 -12.188,0.348 v -8.913 c 4.061,-0.195 8.124,-0.404 12.188,-0.613 z m 14.649,-0.443 c -4.07,0.123 -8.14,0.248 -12.208,0.372 v -9.233 c 4.068,-0.215 8.138,-0.428 12.208,-0.655 z M 13.288,324.14 C 9.222,324.133 5.152,324.115 1.083,324.108 v -9.435 c 4.069,0.104 8.139,0.212 12.205,0.309 z m 14.617,0.034 c -4.055,-0.006 -8.114,-0.022 -12.177,-0.027 v -9.104 c 4.063,0.098 8.122,0.199 12.177,0.29 z m 14.559,0.034 c -4.037,-0.013 -8.08,-0.02 -12.128,-0.027 v -8.792 c 4.048,0.098 8.091,0.178 12.128,0.27 z m 14.472,0.03 c -4.01,-0.012 -8.028,-0.018 -12.054,-0.025 v -8.503 c 4.026,0.092 8.043,0.173 12.053,0.252 0,2.758 10e-4,5.518 10e-4,8.276 m 14.356,0.029 c -3.975,-0.007 -7.959,-0.016 -11.955,-0.023 v -8.235 c 3.996,0.078 7.98,0.153 11.955,0.232 z m 14.216,0.026 c -3.933,-0.007 -7.879,-0.015 -11.836,-0.022 v -7.986 c 3.957,0.071 7.903,0.139 11.836,0.213 z m 14.047,0.024 c -3.884,-0.007 -7.782,-0.014 -11.694,-0.021 v -7.758 c 3.912,0.065 7.81,0.129 11.694,0.194 z m 13.852,0.021 c -3.827,-0.007 -7.67,-0.011 -11.529,-0.018 v -7.55 c 3.859,0.058 7.702,0.119 11.529,0.177 z m 13.632,0.02 c -3.763,-0.006 -7.545,-0.01 -11.344,-0.016 v -7.361 c 3.799,0.058 7.581,0.108 11.344,0.161 z m 13.388,0.017 c -3.693,0 -7.406,-0.008 -11.139,-0.013 v -7.19 c 3.733,0.053 7.446,0.092 11.139,0.145 z m 13.12,0.017 c -3.617,0 -7.255,-0.013 -10.914,-0.013 v -7.035 c 3.659,0.046 7.297,0.084 10.914,0.13 z m 12.829,0.013 c -3.533,-0.007 -7.09,-0.011 -10.67,-0.011 v -6.895 c 3.58,0.044 7.137,0.082 10.67,0.114 z m 12.519,0.014 c -3.445,0 -6.915,-0.003 -10.409,-0.01 0,-2.259 -10e-4,-4.516 -10e-4,-6.774 3.495,0.033 6.965,0.068 10.41,0.102 z m 12.186,0.01 c -3.351,0 -6.727,-0.003 -10.131,-0.009 0,-2.221 -10e-4,-4.443 -10e-4,-6.664 3.404,0.026 6.781,0.061 10.132,0.088 z m 11.836,0.009 c -3.251,0 -6.532,-10e-4 -9.838,-0.007 v -6.57 c 3.306,0.026 6.587,0.05 9.838,0.077 z m 11.469,0.008 c -3.148,0 -6.325,0 -9.532,-0.007 v -6.487 c 3.207,0.02 6.384,0.046 9.532,0.064 z m 11.084,0.007 c -3.04,0 -6.11,0.001 -9.21,-0.006 v -6.418 c 3.1,0.02 6.17,0.043 9.21,0.054 z m 10.686,0.006 c -2.927,-0.007 -5.886,-0.005 -8.876,-0.005 v -6.359 c 2.99,0.012 5.949,0.032 8.876,0.045 z m 10.276,0.004 c -2.812,0 -5.658,-0.003 -8.534,-0.003 v -6.311 c 2.876,0.018 5.722,0.024 8.534,0.037 z m 9.853,0.004 c -2.694,0 -5.422,-0.004 -8.182,-0.004 v -6.271 c 2.76,0.013 5.488,0.023 8.182,0.029 z m 9.421,0.003 c -2.572,0 -5.18,-0.002 -7.821,-0.002 v -6.241 c 2.641,0.012 5.249,0.014 7.821,0.021 z m 8.982,10e-4 c -2.451,0 -4.935,-10e-4 -7.454,-10e-4 v -6.217 c 2.519,0.005 5.003,0.008 7.454,0.015 z m 8.536,0.003 c -2.327,0 -4.687,-10e-4 -7.082,-10e-4 v -6.202 c 2.395,0 4.755,0.003 7.082,0.01 z m 8.085,0 h -6.706 v -6.191 c 2.27,0 4.505,-0.002 6.706,0.005 z m 7.633,0 h -6.329 v -6.186 c 2.144,0 4.254,0.003 6.329,0.003 z m 7.663,0 h -6.417 v -6.183 c 2.104,0 4.243,0.004 6.417,-0.003 z m 8.116,-10e-4 c -2.301,0.006 -4.566,10e-4 -6.796,10e-4 v -6.187 c 2.23,0 4.495,0 6.795,-0.007 0,2.064 10e-4,4.129 10e-4,6.193 m 8.564,-0.002 c -2.425,0 -4.814,0.002 -7.169,0.002 v -6.195 c 2.355,0 4.744,-0.01 7.169,-0.01 z m 9.01,-10e-4 c -2.548,0 -5.061,10e-4 -7.54,10e-4 v -6.207 c 2.479,0 4.992,-0.01 7.54,-0.018 z m 9.45,-0.003 c -2.669,0 -5.304,0.002 -7.906,0.002 v -6.226 c 2.602,-0.007 5.237,-0.011 7.906,-0.024 z m 9.88,-0.004 c -2.787,0.007 -5.542,0.004 -8.263,0.004 v -6.253 c 2.721,-0.007 5.476,-0.024 8.263,-0.031 z m 10.304,-0.004 c -2.904,0 -5.776,0.004 -8.615,0.004 v -6.287 c 2.839,-0.013 5.711,-0.026 8.615,-0.039 z m 10.712,-0.006 c -3.016,0.007 -6.002,0.005 -8.955,0.005 v -6.33 c 2.953,-0.013 5.939,-0.028 8.955,-0.048 z m 11.11,-0.007 c -3.125,0 -6.22,0.006 -9.286,0.006 v -6.382 c 3.066,-0.019 6.161,-0.038 9.286,-0.057 z m 11.493,-0.008 c -3.23,0 -6.431,0.007 -9.604,0.007 V 318 c 3.172,-0.026 6.374,-0.049 9.603,-0.068 0,2.169 0.001,4.338 0.001,6.506 m 11.859,-0.009 c -3.33,0.006 -6.632,0 -9.908,0.007 v -6.518 c 3.276,-0.021 6.578,-0.054 9.908,-0.08 z m 12.21,-0.012 c -3.426,0.007 -6.827,0.009 -10.199,0.009 v -6.605 c 3.372,-0.033 6.773,-0.06 10.199,-0.092 z m 12.539,-0.012 c -3.515,0.007 -7.007,0.011 -10.473,0.011 v -6.706 c 3.466,-0.033 6.958,-0.066 10.473,-0.104 z M 444.7,324.39 c -3.599,0.007 -7.177,0.013 -10.729,0.013 v -6.821 c 3.552,-0.039 7.13,-0.079 10.729,-0.119 z m 13.138,-0.016 c -3.677,0.007 -7.333,0.007 -10.968,0.014 v -6.95 c 3.635,-0.039 7.291,-0.087 10.968,-0.132 z m 13.405,-0.017 c -3.749,0 -7.478,0.008 -11.188,0.015 v -7.094 c 3.71,-0.046 7.439,-0.097 11.188,-0.15 z m 13.648,-0.021 c -3.815,0.007 -7.612,0.011 -11.391,0.018 v -7.256 c 3.779,-0.053 7.576,-0.106 11.391,-0.165 z m 13.865,-0.021 c -3.871,0.007 -7.729,0.019 -11.57,0.019 v -7.435 c 3.841,-0.059 7.699,-0.116 11.57,-0.182 z m 14.06,-0.024 c -3.924,0.007 -7.834,0.014 -11.73,0.019 v -7.631 c 3.896,-0.058 7.806,-0.127 11.73,-0.199 z m 14.224,-0.026 c -3.968,0.013 -7.922,0.015 -11.865,0.022 v -7.848 c 3.943,-0.072 7.897,-0.145 11.865,-0.217 z m 14.366,-0.028 c -4.003,0.013 -7.997,0.017 -11.981,0.023 0,-2.695 -10e-4,-5.389 -10e-4,-8.082 3.984,-0.079 7.978,-0.158 11.981,-0.236 0,2.765 10e-4,5.53 10e-4,8.295 m 14.478,-0.031 c -4.032,0.007 -8.056,0.019 -12.072,0.025 v -8.339 c 4.016,-0.078 8.041,-0.163 12.072,-0.255 z m 14.562,-0.033 c -4.051,0.013 -8.1,0.022 -12.141,0.028 v -8.615 c 4.041,-0.085 8.09,-0.184 12.141,-0.274 z m 14.62,-0.036 c -4.064,0.013 -8.128,0.024 -12.188,0.03 v -8.913 c 4.061,-0.091 8.124,-0.191 12.188,-0.295 z m 14.649,-0.038 c -4.07,0.012 -8.14,0.019 -12.208,0.032 v -9.232 c 4.068,-0.104 8.138,-0.211 12.208,-0.316 z M 13.288,335.331 c -4.066,0.105 -8.136,0.198 -12.205,0.309 v -9.436 c 4.069,-0.006 8.139,-0.017 12.205,-0.03 z m 14.617,-0.349 c -4.055,0.091 -8.114,0.191 -12.177,0.289 v -9.104 c 4.063,-0.006 8.122,-0.015 12.177,-0.028 z m 14.559,-0.326 c -4.037,0.086 -8.08,0.178 -12.128,0.27 v -8.792 c 4.048,-0.007 8.091,-0.014 12.128,-0.028 z m 14.472,-0.301 c -4.01,0.079 -8.028,0.164 -12.054,0.25 v -8.503 c 4.026,-0.007 8.043,-0.019 12.053,-0.025 0,2.759 10e-4,5.519 10e-4,8.278 m 14.356,-0.278 c -3.975,0.077 -7.959,0.152 -11.955,0.23 v -8.235 c 3.996,-0.007 7.98,-0.016 11.955,-0.023 z m 14.216,-0.257 c -3.933,0.065 -7.879,0.14 -11.836,0.212 v -7.987 c 3.957,-0.006 7.903,-0.014 11.836,-0.021 z m 14.047,-0.235 c -3.884,0.06 -7.782,0.13 -11.694,0.195 v -7.759 c 3.912,-0.007 7.81,-0.014 11.694,-0.02 z m 13.852,-0.213 c -3.827,0.058 -7.67,0.117 -11.529,0.176 v -7.55 c 3.859,-0.007 7.702,-0.013 11.529,-0.019 z m 13.632,-0.194 c -3.763,0.045 -7.545,0.101 -11.344,0.159 v -7.359 c 3.799,-0.007 7.581,-0.01 11.344,-0.017 z m 13.388,-0.175 c -3.693,0.045 -7.406,0.092 -11.139,0.143 v -7.188 c 3.733,-0.007 7.446,-0.008 11.139,-0.014 z m 13.12,-0.157 c -3.617,0.04 -7.255,0.084 -10.914,0.129 v -7.034 c 3.659,-0.007 7.297,-0.006 10.914,-0.013 z m 12.829,-0.139 c -3.533,0.033 -7.09,0.075 -10.67,0.114 v -6.895 c 3.58,0 7.137,-0.005 10.67,-0.011 z m 12.519,-0.124 c -3.445,0.034 -6.915,0.063 -10.409,0.102 0,-2.258 -10e-4,-4.515 -10e-4,-6.773 3.495,0 6.965,-0.01 10.41,-0.01 z m 12.186,-0.107 c -3.351,0.026 -6.727,0.056 -10.131,0.089 0,-2.221 -10e-4,-4.444 -10e-4,-6.664 3.404,0 6.781,-0.009 10.132,-0.009 z m 11.836,-0.093 c -3.251,0.027 -6.532,0.051 -9.838,0.077 v -6.57 c 3.306,-0.006 6.587,-0.009 9.838,-0.009 z m 11.469,-0.078 c -3.148,0.025 -6.325,0.044 -9.532,0.065 v -6.489 c 3.207,-0.006 6.384,-0.006 9.532,-0.006 z m 11.084,-0.068 c -3.04,0.019 -6.11,0.035 -9.21,0.055 v -6.418 c 3.1,-0.006 6.17,-0.006 9.21,-0.006 z m 10.686,-0.056 c -2.927,0.02 -5.886,0.025 -8.876,0.046 v -6.359 c 2.99,0 5.949,-0.005 8.876,-0.005 z m 10.276,-0.044 c -2.812,0.012 -5.658,0.022 -8.534,0.036 v -6.312 c 2.876,0 5.722,0.003 8.534,-0.004 z m 9.853,-0.036 c -2.694,0.006 -5.422,0.022 -8.182,0.029 v -6.273 c 2.76,0 5.488,-0.003 8.182,-0.003 z m 9.421,-0.027 c -2.572,0.006 -5.18,0.014 -7.821,0.021 v -6.241 c 2.641,0 5.249,-0.002 7.821,-0.002 z m 8.982,-0.021 c -2.451,0.007 -4.935,0.01 -7.454,0.016 v -6.217 c 2.519,0 5.003,-0.002 7.454,-0.002 z m 8.536,-0.012 c -2.327,0.006 -4.687,0.004 -7.082,0.01 v -6.201 c 2.395,0 4.755,-0.002 7.082,-0.002 z m 8.085,-0.007 c -2.201,0 -4.436,0.006 -6.706,0.006 v -6.192 c 2.27,0 4.505,0.006 6.706,-0.001 z m 7.633,-10e-4 h -6.33 v -6.186 h 6.33 z m 7.663,0.002 c -2.174,0 -4.313,-0.002 -6.417,-0.002 v -6.186 h 6.417 z m 8.116,0.007 c -2.301,-0.007 -4.566,0 -6.796,-0.007 v -6.188 c 2.23,0 4.495,0.003 6.795,0.003 0,2.063 10e-4,4.127 10e-4,6.192 m 8.564,0.012 c -2.425,0 -4.814,-0.004 -7.169,-0.011 v -6.193 h 7.169 z m 9.01,0.021 c -2.548,-0.007 -5.061,-0.012 -7.54,-0.017 v -6.208 c 2.479,0 4.992,0.002 7.54,0.002 z m 9.45,0.027 c -2.669,-0.012 -5.304,-0.01 -7.906,-0.024 v -6.226 c 2.602,0 5.237,0.002 7.906,0.002 z m 9.88,0.037 c -2.787,-0.007 -5.542,-0.024 -8.263,-0.031 v -6.253 c 2.721,0 5.476,-0.003 8.263,0.003 z m 10.304,0.046 c -2.904,-0.013 -5.776,-0.027 -8.615,-0.039 v -6.286 c 2.839,0 5.711,0.003 8.615,0.003 z m 10.712,0.056 c -3.016,-0.02 -6.002,-0.035 -8.955,-0.049 v -6.328 c 2.953,0 5.939,0.004 8.955,0.004 z m 11.11,0.068 c -3.125,-0.019 -6.22,-0.039 -9.286,-0.057 v -6.382 c 3.066,0 6.161,0.005 9.286,0.005 z m 11.493,0.08 c -3.23,-0.026 -6.431,-0.048 -9.604,-0.067 v -6.445 c 3.172,0.006 6.374,0 9.603,0.006 0,2.168 0.001,4.337 0.001,6.506 m 11.859,0.094 c -3.33,-0.025 -6.632,-0.054 -9.908,-0.079 v -6.519 c 3.276,0 6.578,0.007 9.908,0.007 z m 12.21,0.108 c -3.426,-0.033 -6.827,-0.065 -10.199,-0.091 v -6.606 c 3.372,0 6.773,0.002 10.199,0.009 z m 12.539,0.124 c -3.517,-0.032 -7.007,-0.071 -10.473,-0.104 v -6.706 c 3.466,0.007 6.958,0.011 10.473,0.011 z m 12.848,0.14 c -3.599,-0.045 -7.177,-0.078 -10.729,-0.117 v -6.821 c 3.552,0.007 7.13,0.012 10.729,0.012 z m 13.138,0.159 c -3.677,-0.046 -7.333,-0.094 -10.968,-0.134 v -6.948 c 3.635,0.006 7.291,0.006 10.968,0.012 z m 13.405,0.175 c -3.749,-0.051 -7.478,-0.102 -11.188,-0.147 v -7.094 c 3.71,0.007 7.439,0.013 11.188,0.013 z m 13.648,0.195 c -3.815,-0.052 -7.612,-0.112 -11.391,-0.163 v -7.256 c 3.779,0 7.576,0.01 11.391,0.017 z m 13.865,0.217 c -3.871,-0.066 -7.729,-0.123 -11.57,-0.183 v -7.433 c 3.841,0.006 7.699,0.012 11.57,0.017 z m 14.06,0.236 c -3.924,-0.066 -7.834,-0.14 -11.73,-0.199 v -7.631 c 3.896,0.007 7.806,0.013 11.73,0.018 z m 14.224,0.257 c -3.968,-0.072 -7.922,-0.144 -11.865,-0.216 v -7.847 c 3.943,0.006 7.897,0.014 11.865,0.021 z m 14.366,0.28 c -4.003,-0.078 -7.997,-0.157 -11.981,-0.234 0,-2.696 -10e-4,-5.389 -10e-4,-8.085 3.984,0.007 7.978,0.01 11.981,0.024 0,2.765 10e-4,5.529 10e-4,8.295 m 14.478,0.303 c -4.032,-0.085 -8.056,-0.169 -12.072,-0.254 v -8.34 c 4.016,0.007 8.04,0.013 12.072,0.026 z m 14.562,0.326 c -4.051,-0.091 -8.1,-0.182 -12.141,-0.274 v -8.614 c 4.041,0.007 8.09,0.013 12.141,0.027 z m 14.62,0.351 c -4.064,-0.105 -8.128,-0.196 -12.188,-0.294 v -8.914 c 4.06,0.014 8.124,0.023 12.188,0.03 z m 14.649,0.375 c -4.07,-0.111 -8.14,-0.217 -12.208,-0.314 v -9.233 c 4.068,0.006 8.138,0.018 12.208,0.031 z M 13.288,346.318 c -4.066,0.21 -8.136,0.423 -12.205,0.645 v -9.436 c 4.069,-0.131 8.139,-0.248 12.205,-0.365 z m 14.617,-0.726 c -4.055,0.195 -8.114,0.393 -12.177,0.602 v -9.104 c 4.063,-0.116 8.122,-0.23 12.177,-0.34 z m 14.559,-0.677 c -4.037,0.183 -8.08,0.371 -12.128,0.56 v -8.792 c 4.048,-0.104 8.091,-0.212 12.128,-0.317 z m 14.472,-0.627 c -4.01,0.17 -8.028,0.343 -12.054,0.52 v -8.503 c 4.026,-0.098 8.043,-0.203 12.053,-0.295 0,2.759 10e-4,5.518 10e-4,8.278 m 14.356,-0.58 c -3.975,0.15 -7.959,0.316 -11.955,0.48 v -8.234 c 3.996,-0.092 7.98,-0.18 11.955,-0.273 z m 14.216,-0.533 c -3.933,0.144 -7.879,0.291 -11.836,0.441 v -7.986 c 3.957,-0.086 7.903,-0.173 11.836,-0.251 z m 14.047,-0.488 c -3.884,0.13 -7.782,0.266 -11.694,0.403 v -7.759 c 3.912,-0.079 7.81,-0.15 11.694,-0.229 z m 13.852,-0.446 c -3.827,0.118 -7.67,0.237 -11.529,0.368 v -7.55 c 3.859,-0.073 7.702,-0.143 11.529,-0.21 z m 13.632,-0.404 c -3.763,0.105 -7.545,0.216 -11.344,0.333 v -7.361 c 3.799,-0.064 7.581,-0.13 11.344,-0.189 z m 13.388,-0.363 c -3.693,0.098 -7.406,0.196 -11.139,0.3 v -7.189 c 3.733,-0.059 7.446,-0.119 11.139,-0.171 z m 13.12,-0.326 c -3.617,0.084 -7.255,0.177 -10.914,0.267 v -7.033 c 3.659,-0.058 7.297,-0.106 10.914,-0.152 z m 12.829,-0.291 c -3.533,0.073 -7.09,0.155 -10.67,0.239 V 334.2 c 3.58,-0.046 7.137,-0.089 10.67,-0.135 z m 12.519,-0.256 c -3.445,0.066 -6.915,0.139 -10.409,0.212 0,-2.258 -10e-4,-4.516 -10e-4,-6.774 3.495,-0.039 6.965,-0.087 10.41,-0.119 z m 12.186,-0.224 c -3.351,0.06 -6.727,0.12 -10.131,0.186 0,-2.223 -10e-4,-4.444 -10e-4,-6.666 3.404,-0.033 6.781,-0.07 10.132,-0.104 z m 11.836,-0.192 c -3.251,0.051 -6.532,0.1 -9.838,0.158 v -6.569 c 3.306,-0.026 6.587,-0.064 9.838,-0.09 z m 11.469,-0.166 c -3.148,0.045 -6.325,0.083 -9.532,0.136 v -6.488 c 3.207,-0.025 6.384,-0.052 9.532,-0.078 z m 11.084,-0.14 c -3.04,0.033 -6.11,0.076 -9.21,0.115 v -6.419 c 3.1,-0.019 6.17,-0.046 9.21,-0.065 z m 10.686,-0.116 c -2.927,0.033 -5.886,0.063 -8.876,0.096 v -6.36 c 2.99,-0.021 5.949,-0.035 8.876,-0.054 z m 10.276,-0.094 c -2.812,0.019 -5.658,0.05 -8.534,0.078 v -6.312 c 2.876,-0.013 5.722,-0.03 8.534,-0.044 z m 9.853,-0.074 c -2.694,0.02 -5.422,0.034 -8.182,0.06 v -6.272 c 2.76,-0.012 5.488,-0.02 8.182,-0.034 z m 9.421,-0.057 c -2.572,0.015 -5.18,0.034 -7.821,0.046 v -6.241 c 2.641,-0.007 5.249,-0.012 7.821,-0.026 z m 8.982,-0.04 c -2.451,0.007 -4.935,0.019 -7.454,0.033 v -6.218 c 2.519,-0.006 5.003,-0.012 7.454,-0.019 z m 8.536,-0.026 c -2.327,0.007 -4.687,0.014 -7.082,0.021 v -6.201 c 2.395,-0.007 4.755,-0.006 7.082,-0.013 z m 8.085,-0.015 c -2.201,0 -4.436,0.004 -6.706,0.011 v -6.191 c 2.27,-0.006 4.505,-0.006 6.706,-0.006 z m 7.633,-0.005 c -2.075,0 -4.185,0.002 -6.329,0.002 v -6.184 c 2.144,0 4.254,-10e-4 6.329,-10e-4 z m 7.663,0.006 c -2.174,-0.007 -4.313,-0.005 -6.417,-0.005 v -6.184 c 2.104,0 4.243,0.002 6.417,0.002 z m 8.116,0.015 c -2.301,-0.007 -4.566,-0.007 -6.796,-0.014 v -6.187 c 2.23,0 4.495,0.007 6.795,0.007 0,2.065 10e-4,4.13 10e-4,6.194 m 8.564,0.027 c -2.425,-0.013 -4.814,-0.017 -7.169,-0.024 v -6.193 c 2.355,0.006 4.744,0.007 7.169,0.013 z m 9.01,0.042 c -2.548,-0.013 -5.061,-0.028 -7.54,-0.035 v -6.208 c 2.479,0.007 4.992,0.014 7.54,0.02 z m 9.45,0.058 c -2.669,-0.013 -5.304,-0.03 -7.906,-0.05 v -6.226 c 2.602,0.007 5.237,0.015 7.906,0.029 z m 9.88,0.075 c -2.787,-0.02 -5.542,-0.045 -8.263,-0.064 v -6.253 c 2.721,0.007 5.476,0.024 8.263,0.037 z m 10.304,0.095 c -2.904,-0.026 -5.776,-0.054 -8.615,-0.082 v -6.285 c 2.839,0.012 5.711,0.033 8.615,0.045 z m 10.712,0.118 c -3.016,-0.033 -6.002,-0.067 -8.955,-0.1 v -6.33 c 2.953,0.02 5.939,0.037 8.955,0.057 z m 11.11,0.141 c -3.125,-0.046 -6.22,-0.087 -9.286,-0.12 v -6.382 c 3.066,0.021 6.161,0.041 9.286,0.069 z m 11.493,0.167 c -3.23,-0.051 -6.431,-0.096 -9.604,-0.142 v -6.443 c 3.172,0.025 6.374,0.046 9.603,0.079 0,2.168 0.001,4.337 0.001,6.506 m 11.859,0.196 c -3.33,-0.06 -6.632,-0.113 -9.908,-0.165 v -6.519 c 3.276,0.025 6.578,0.061 9.908,0.092 z m 12.21,0.226 c -3.426,-0.073 -6.827,-0.132 -10.199,-0.191 v -6.606 c 3.372,0.033 6.773,0.069 10.199,0.109 z m 12.539,0.258 c -3.515,-0.079 -7.007,-0.147 -10.473,-0.218 v -6.707 c 3.466,0.04 6.958,0.079 10.473,0.124 z m 12.848,0.291 c -3.599,-0.091 -7.177,-0.167 -10.729,-0.246 v -6.82 c 3.552,0.045 7.13,0.095 10.729,0.139 z m 13.138,0.33 c -3.677,-0.099 -7.333,-0.186 -10.968,-0.277 v -6.949 c 3.635,0.046 7.291,0.097 10.968,0.156 z m 13.405,0.365 c -3.749,-0.105 -7.478,-0.209 -11.188,-0.307 v -7.096 c 3.71,0.06 7.439,0.117 11.188,0.175 z m 13.648,0.407 c -3.815,-0.119 -7.612,-0.23 -11.391,-0.341 v -7.256 c 3.779,0.058 7.576,0.128 11.391,0.193 z m 13.865,0.448 c -3.871,-0.131 -7.729,-0.253 -11.57,-0.376 v -7.436 c 3.841,0.073 7.699,0.136 11.57,0.214 z m 14.06,0.491 c -3.924,-0.137 -7.834,-0.281 -11.73,-0.413 v -7.631 c 3.896,0.073 7.806,0.149 11.73,0.234 z m 14.224,0.537 c -3.968,-0.151 -7.922,-0.307 -11.865,-0.451 v -7.847 c 3.943,0.086 7.897,0.163 11.865,0.255 z m 14.366,0.583 c -4.003,-0.17 -7.997,-0.332 -11.981,-0.489 0,-2.694 -10e-4,-5.389 -10e-4,-8.084 3.984,0.092 7.978,0.187 11.981,0.278 0,2.764 10e-4,5.53 10e-4,8.295 m 14.478,0.63 c -4.031,-0.182 -8.056,-0.359 -12.072,-0.529 v -8.339 c 4.016,0.098 8.041,0.196 12.072,0.3 z m 14.562,0.68 c -4.051,-0.196 -8.1,-0.388 -12.141,-0.571 v -8.614 c 4.041,0.104 8.09,0.212 12.141,0.323 z m 14.62,0.73 c -4.064,-0.215 -8.128,-0.41 -12.188,-0.613 v -8.913 c 4.06,0.111 8.124,0.23 12.188,0.347 z m 14.649,0.781 c -4.07,-0.23 -8.14,-0.446 -12.208,-0.654 v -9.235 c 4.068,0.119 8.138,0.248 12.208,0.373 z M 13.288,357.305 c -4.066,0.32 -8.136,0.641 -12.205,0.98 v -9.435 c 4.069,-0.242 8.139,-0.473 12.205,-0.701 z m 14.617,-1.103 c -4.056,0.293 -8.114,0.601 -12.177,0.914 v -9.103 c 4.063,-0.221 8.121,-0.444 12.177,-0.654 z m 14.559,-1.029 c -4.037,0.276 -8.08,0.565 -12.128,0.853 v -8.792 c 4.048,-0.209 8.091,-0.413 12.128,-0.609 z m 14.472,-0.953 c -4.01,0.255 -8.028,0.523 -12.054,0.79 v -8.502 c 4.026,-0.195 8.043,-0.382 12.053,-0.564 0,2.758 10e-4,5.516 10e-4,8.276 m 14.356,-0.881 c -3.975,0.236 -7.96,0.475 -11.955,0.73 v -8.234 c 3.995,-0.184 7.98,-0.357 11.955,-0.522 z m 14.216,-0.81 c -3.933,0.216 -7.879,0.444 -11.836,0.671 v -7.987 c 3.957,-0.163 7.903,-0.322 11.836,-0.48 z m 14.047,-0.743 c -3.884,0.197 -7.782,0.406 -11.694,0.615 v -7.759 c 3.912,-0.151 7.81,-0.302 11.694,-0.44 z m 13.852,-0.676 c -3.827,0.177 -7.67,0.371 -11.529,0.56 v -7.551 c 3.859,-0.136 7.702,-0.269 11.529,-0.4 z m 13.632,-0.614 c -3.763,0.164 -7.545,0.332 -11.344,0.509 v -7.362 c 3.799,-0.131 7.581,-0.245 11.344,-0.363 z m 13.388,-0.553 c -3.693,0.145 -7.406,0.301 -11.139,0.457 v -7.189 c 3.733,-0.117 7.446,-0.221 11.139,-0.326 z m 13.12,-0.496 c -3.617,0.126 -7.255,0.266 -10.914,0.41 v -7.034 c 3.659,-0.097 7.297,-0.201 10.914,-0.293 z m 12.829,-0.44 c -3.533,0.112 -7.09,0.235 -10.67,0.364 v -6.896 c 3.58,-0.091 7.137,-0.181 10.67,-0.26 z m 12.519,-0.388 c -3.445,0.098 -6.915,0.21 -10.409,0.319 0,-2.256 -10e-4,-4.513 -10e-4,-6.771 3.495,-0.079 6.965,-0.158 10.41,-0.229 z m 12.186,-0.341 c -3.351,0.086 -6.727,0.184 -10.131,0.282 0,-2.223 -10e-4,-4.445 -10e-4,-6.665 3.404,-0.072 6.781,-0.135 10.132,-0.201 z m 11.836,-0.294 c -3.251,0.079 -6.532,0.158 -9.838,0.243 v -6.57 c 3.306,-0.058 6.587,-0.121 9.838,-0.173 z m 11.469,-0.251 c -3.148,0.065 -6.325,0.136 -9.532,0.207 v -6.488 c 3.207,-0.052 6.384,-0.102 9.532,-0.148 z m 11.084,-0.211 c -3.04,0.051 -6.11,0.114 -9.21,0.173 v -6.418 c 3.1,-0.039 6.17,-0.085 9.21,-0.125 z m 10.686,-0.177 c -2.927,0.047 -5.886,0.093 -8.876,0.145 v -6.359 c 2.99,-0.04 5.949,-0.071 8.876,-0.104 z m 10.276,-0.143 c -2.812,0.04 -5.658,0.079 -8.534,0.117 v -6.311 c 2.876,-0.031 5.722,-0.057 8.534,-0.083 z m 9.853,-0.112 c -2.694,0.033 -5.422,0.053 -8.182,0.093 v -6.273 c 2.76,-0.026 5.488,-0.047 8.182,-0.065 z m 9.421,-0.086 c -2.572,0.026 -5.18,0.043 -7.821,0.07 v -6.241 c 2.641,-0.02 5.249,-0.037 7.821,-0.051 z m 8.982,-0.062 c -2.449,0.02 -4.935,0.031 -7.454,0.05 v -6.218 c 2.519,-0.012 5.003,-0.028 7.454,-0.035 z m 8.536,-0.041 c -2.327,0.007 -4.687,0.021 -7.082,0.034 v -6.202 c 2.395,-0.007 4.755,-0.017 7.082,-0.023 z m 8.085,-0.022 c -2.201,0 -4.436,0.012 -6.706,0.017 v -6.19 c 2.27,-0.006 4.505,-0.012 6.706,-0.012 z m 7.633,-0.006 c -2.075,0 -4.185,-10e-4 -6.329,0.004 v -6.185 c 2.144,-0.007 4.254,-0.004 6.329,-0.004 z m 7.663,0.008 c -2.174,-0.007 -4.313,-0.007 -6.417,-0.007 v -6.185 c 2.104,0 4.243,0.005 6.417,0.005 z m 8.116,0.023 c -2.301,-0.013 -4.566,-0.014 -6.796,-0.02 v -6.188 c 2.23,0 4.495,0.003 6.795,0.015 0,2.064 10e-4,4.129 10e-4,6.193 m 8.564,0.042 c -2.425,-0.02 -4.814,-0.03 -7.169,-0.037 v -6.193 c 2.355,0.006 4.744,0.018 7.169,0.025 z m 9.01,0.064 c -2.548,-0.028 -5.061,-0.035 -7.54,-0.055 v -6.208 c 2.479,0.006 4.992,0.02 7.54,0.039 z m 9.45,0.087 c -2.669,-0.027 -5.304,-0.05 -7.906,-0.075 v -6.226 c 2.602,0.013 5.237,0.033 7.906,0.053 z m 9.88,0.114 c -2.787,-0.033 -5.542,-0.071 -8.263,-0.097 v -6.253 c 2.721,0.019 5.476,0.043 8.263,0.07 z m 10.304,0.144 c -2.904,-0.044 -5.776,-0.083 -8.615,-0.122 v -6.286 c 2.839,0.026 5.711,0.054 8.615,0.088 z m 10.712,0.178 c -3.016,-0.051 -6.002,-0.104 -8.955,-0.151 v -6.329 c 2.953,0.034 5.939,0.07 8.955,0.109 z m 11.11,0.215 c -3.125,-0.065 -6.22,-0.122 -9.286,-0.182 v -6.38 c 3.066,0.039 6.161,0.083 9.286,0.128 z m 11.493,0.254 c -3.23,-0.071 -6.431,-0.142 -9.604,-0.214 v -6.445 c 3.173,0.046 6.374,0.095 9.603,0.154 0,2.168 0.001,4.337 0.001,6.505 m 11.859,0.298 c -3.33,-0.092 -6.632,-0.173 -9.908,-0.25 v -6.519 c 3.276,0.059 6.578,0.113 9.908,0.178 z m 12.21,0.343 c -3.426,-0.104 -6.827,-0.198 -10.199,-0.289 v -6.606 c 3.372,0.065 6.773,0.135 10.199,0.207 z m 12.539,0.392 c -3.515,-0.117 -7.007,-0.225 -10.473,-0.33 v -6.706 c 3.466,0.078 6.956,0.158 10.473,0.235 z m 12.848,0.444 c -3.599,-0.131 -7.177,-0.256 -10.729,-0.374 v -6.82 c 3.552,0.079 7.13,0.176 10.729,0.267 z m 13.138,0.499 c -3.677,-0.151 -7.333,-0.289 -10.968,-0.42 v -6.949 c 3.635,0.099 7.291,0.196 10.968,0.301 z m 13.405,0.556 c -3.749,-0.163 -7.478,-0.317 -11.188,-0.466 v -7.095 c 3.71,0.111 7.439,0.217 11.188,0.335 z m 13.648,0.618 c -3.815,-0.177 -7.611,-0.354 -11.391,-0.519 v -7.255 c 3.779,0.118 7.576,0.24 11.391,0.372 z m 13.865,0.681 c -3.872,-0.194 -7.729,-0.388 -11.57,-0.571 v -7.434 c 3.841,0.13 7.699,0.266 11.57,0.408 z m 14.06,0.746 c -3.924,-0.22 -7.834,-0.428 -11.73,-0.626 v -7.632 c 3.896,0.145 7.806,0.293 11.73,0.449 z m 14.224,0.816 c -3.968,-0.234 -7.922,-0.461 -11.865,-0.684 v -7.847 c 3.943,0.163 7.897,0.32 11.865,0.489 z m 14.366,0.886 c -4.003,-0.255 -7.997,-0.502 -11.981,-0.743 0,-2.694 -10e-4,-5.389 -10e-4,-8.083 3.984,0.17 7.978,0.348 11.981,0.531 0,2.765 10e-4,5.531 10e-4,8.295 m 14.478,0.957 c -4.031,-0.274 -8.056,-0.541 -12.072,-0.803 v -8.338 c 4.016,0.183 8.041,0.372 12.072,0.575 z m 14.562,1.033 c -4.051,-0.3 -8.1,-0.584 -12.141,-0.866 v -8.614 c 4.041,0.202 8.09,0.403 12.141,0.619 z m 14.62,1.109 c -4.064,-0.325 -8.127,-0.629 -12.188,-0.929 v -8.913 c 4.061,0.216 8.124,0.436 12.188,0.665 z m 14.649,1.187 c -4.07,-0.338 -8.14,-0.674 -12.208,-0.994 v -9.233 c 4.068,0.228 8.138,0.47 12.208,0.711 z m -586.427,9.727 c -4.067,0.424 -8.136,0.862 -12.205,1.313 v -9.435 c 4.069,-0.353 8.139,-0.695 12.205,-1.035 z m 14.617,-1.482 c -4.056,0.398 -8.115,0.802 -12.177,1.227 v -9.103 c 4.062,-0.332 8.121,-0.653 12.177,-0.966 z m 14.559,-1.379 c -4.037,0.372 -8.08,0.751 -12.128,1.142 v -8.792 c 4.048,-0.306 8.091,-0.605 12.128,-0.9 z m 14.472,-1.28 c -4.011,0.341 -8.028,0.694 -12.054,1.059 v -8.501 c 4.026,-0.288 8.043,-0.566 12.053,-0.835 0,2.759 10e-4,5.519 10e-4,8.277 m 14.356,-1.181 c -3.975,0.314 -7.959,0.645 -11.955,0.978 v -8.234 c 3.995,-0.267 7.98,-0.522 11.955,-0.771 z m 14.216,-1.088 c -3.934,0.288 -7.879,0.593 -11.836,0.9 v -7.987 c 3.957,-0.241 7.903,-0.48 11.836,-0.708 z m 14.047,-0.996 c -3.884,0.261 -7.783,0.537 -11.694,0.823 v -7.758 c 3.912,-0.222 7.81,-0.44 11.694,-0.649 z m 13.852,-0.909 c -3.827,0.243 -7.67,0.491 -11.529,0.751 v -7.549 c 3.859,-0.203 7.702,-0.403 11.529,-0.593 z m 13.632,-0.823 c -3.764,0.217 -7.545,0.447 -11.344,0.68 v -7.36 c 3.799,-0.189 7.581,-0.366 11.344,-0.537 z m 13.388,-0.742 c -3.693,0.196 -7.406,0.398 -11.139,0.613 v -7.189 c 3.733,-0.163 7.446,-0.325 11.139,-0.483 z m 13.12,-0.665 c -3.617,0.17 -7.255,0.36 -10.914,0.549 v -7.034 c 3.659,-0.15 7.297,-0.295 10.914,-0.432 z m 12.829,-0.591 c -3.533,0.151 -7.09,0.319 -10.67,0.488 v -6.896 c 3.58,-0.136 7.137,-0.267 10.67,-0.384 z m 12.519,-0.521 c -3.445,0.131 -6.915,0.28 -10.409,0.428 0,-2.256 -10e-4,-4.514 -10e-4,-6.771 3.495,-0.118 6.965,-0.234 10.41,-0.338 z m 12.186,-0.457 c -3.351,0.118 -6.728,0.24 -10.131,0.376 0,-2.222 -10e-4,-4.443 -10e-4,-6.664 3.404,-0.104 6.781,-0.204 10.132,-0.296 z m 11.836,-0.394 c -3.251,0.098 -6.532,0.208 -9.838,0.324 v -6.569 c 3.306,-0.091 6.587,-0.177 9.838,-0.256 z m 11.469,-0.337 c -3.148,0.084 -6.325,0.178 -9.532,0.276 v -6.487 c 3.207,-0.079 6.384,-0.146 9.532,-0.219 z m 11.084,-0.286 c -3.04,0.073 -6.11,0.155 -9.21,0.233 v -6.417 c 3.1,-0.064 6.17,-0.125 9.21,-0.184 z m 10.686,-0.235 c -2.927,0.058 -5.886,0.121 -8.876,0.193 v -6.359 c 2.99,-0.053 5.949,-0.108 8.876,-0.154 z m 10.276,-0.192 c -2.812,0.045 -5.658,0.098 -8.534,0.156 v -6.311 c 2.876,-0.046 5.722,-0.083 8.534,-0.122 z m 9.853,-0.151 c -2.694,0.032 -5.422,0.078 -8.182,0.122 v -6.271 c 2.76,-0.032 5.488,-0.064 8.182,-0.097 z m 9.421,-0.116 c -2.572,0.027 -5.18,0.061 -7.821,0.094 v -6.24 c 2.641,-0.027 5.249,-0.055 7.821,-0.074 z m 8.982,-0.083 c -2.451,0.021 -4.935,0.042 -7.454,0.067 v -6.217 c 2.519,-0.019 5.005,-0.033 7.454,-0.052 z m 8.536,-0.054 c -2.327,0.013 -4.687,0.024 -7.082,0.043 v -6.201 c 2.395,-0.012 4.755,-0.02 7.082,-0.034 z m 8.085,-0.029 c -2.201,0.007 -4.436,0.01 -6.706,0.022 v -6.191 c 2.27,-0.012 4.505,-0.017 6.706,-0.017 z m 7.633,-0.01 c -2.075,0 -4.185,0.006 -6.329,0.006 v -6.185 c 2.144,-0.006 4.254,-0.004 6.329,-0.004 z m 7.663,0.011 c -2.174,-0.007 -4.313,-0.011 -6.417,-0.011 v -6.183 c 2.104,0 4.243,10e-4 6.417,0.007 z m 8.116,0.03 c -2.301,-0.012 -4.566,-0.02 -6.796,-0.027 v -6.186 c 2.23,0.006 4.495,0.009 6.795,0.021 0,2.065 10e-4,4.129 10e-4,6.192 m 8.564,0.058 c -2.425,-0.02 -4.814,-0.037 -7.169,-0.049 v -6.195 c 2.355,0.007 4.744,0.025 7.169,0.039 z m 9.01,0.084 c -2.548,-0.026 -5.061,-0.054 -7.54,-0.072 v -6.207 c 2.479,0.02 4.992,0.037 7.54,0.056 z m 9.45,0.117 c -2.669,-0.039 -5.304,-0.073 -7.906,-0.1 v -6.226 c 2.602,0.021 5.237,0.046 7.906,0.079 z m 9.88,0.154 c -2.787,-0.046 -5.542,-0.091 -8.263,-0.13 v -6.253 c 2.721,0.026 5.476,0.064 8.263,0.103 z m 10.304,0.194 c -2.904,-0.058 -5.776,-0.112 -8.615,-0.164 v -6.287 c 2.839,0.04 5.711,0.084 8.615,0.13 z m 10.712,0.24 c -3.016,-0.078 -6.002,-0.144 -8.955,-0.203 v -6.329 c 2.953,0.052 5.939,0.101 8.955,0.16 z m 11.11,0.287 c -3.125,-0.085 -6.22,-0.164 -9.286,-0.243 v -6.381 c 3.065,0.065 6.161,0.12 9.286,0.191 z m 11.493,0.342 c -3.23,-0.104 -6.431,-0.204 -9.604,-0.288 v -6.445 c 3.172,0.072 6.374,0.142 9.603,0.227 0,2.168 0.001,4.337 0.001,6.506 m 11.859,0.398 c -3.33,-0.124 -6.632,-0.231 -9.908,-0.336 v -6.518 c 3.276,0.077 6.578,0.172 9.908,0.265 z m 12.21,45.605 c -3.426,-0.332 -6.827,-0.644 -10.199,-0.945 v -6.605 c 3.372,0.275 6.773,0.563 10.199,0.861 z m 12.539,-44.619 c -3.517,-0.15 -7.006,-0.304 -10.473,-0.443 v -6.705 c 3.466,0.111 6.958,0.225 10.473,0.349 z m 12.848,0.596 c -3.599,-0.176 -7.177,-0.344 -10.729,-0.501 v -6.82 c 3.552,0.124 7.13,0.258 10.729,0.395 z m 13.138,0.669 c -3.677,-0.195 -7.333,-0.384 -10.968,-0.563 v -6.948 c 3.635,0.145 7.291,0.286 10.968,0.443 z m 13.405,0.749 c -3.749,-0.216 -7.478,-0.426 -11.188,-0.629 v -7.093 c 3.71,0.158 7.439,0.325 11.188,0.493 z m 13.648,0.828 c -3.815,-0.236 -7.611,-0.48 -11.391,-0.696 v -7.256 c 3.779,0.178 7.576,0.359 11.391,0.549 z m 13.865,0.914 c -3.871,-0.266 -7.729,-0.519 -11.57,-0.768 v -7.433 c 3.841,0.188 7.699,0.396 11.57,0.603 z m 14.06,1.002 c -3.924,-0.286 -7.834,-0.572 -11.73,-0.841 v -7.631 c 3.896,0.21 7.806,0.427 11.73,0.663 z m 14.224,1.094 c -3.968,-0.313 -7.922,-0.618 -11.865,-0.918 v -7.847 c 3.943,0.227 7.897,0.475 11.865,0.722 z m 14.366,1.188 c -4.003,-0.339 -7.997,-0.677 -11.981,-0.997 0,-2.694 -10e-4,-5.388 -10e-4,-8.083 3.984,0.249 7.978,0.517 11.981,0.786 0,2.764 10e-4,5.528 10e-4,8.294 m 14.478,1.285 c -4.031,-0.371 -8.056,-0.725 -12.072,-1.078 v -8.337 c 4.016,0.274 8.041,0.555 12.072,0.849 z m 14.562,1.386 c -4.051,-0.397 -8.098,-0.79 -12.141,-1.162 v -8.615 c 4.041,0.301 8.09,0.603 12.141,0.915 z m 14.62,1.488 c -4.064,-0.429 -8.127,-0.842 -12.188,-1.247 v -8.913 c 4.061,0.313 8.123,0.65 12.188,0.983 z m 14.649,1.594 c -4.07,-0.457 -8.14,-0.899 -12.208,-1.336 v -9.232 c 4.068,0.339 8.138,0.693 12.208,1.052 z m -586.427,9.294 c -4.067,0.536 -8.136,1.088 -12.205,1.649 v -9.435 c 4.069,-0.471 8.139,-0.92 12.205,-1.37 z m 14.617,-1.86 c -4.056,0.497 -8.115,1.013 -12.177,1.541 v -9.103 c 4.062,-0.442 8.121,-0.867 12.177,-1.278 z m 14.559,-1.73 c -4.037,0.464 -8.08,0.944 -12.128,1.434 v -8.792 c 4.048,-0.411 8.091,-0.804 12.128,-1.19 z m 14.472,-1.605 c -4.01,0.432 -8.028,0.873 -12.054,1.329 v -8.502 c 4.026,-0.378 8.043,-0.744 12.053,-1.103 0,2.758 10e-4,5.518 10e-4,8.276 m 14.356,-1.482 c -3.975,0.399 -7.959,0.809 -11.955,1.227 v -8.234 c 3.994,-0.353 7.98,-0.693 11.955,-1.02 z m 14.216,-1.366 c -3.934,0.36 -7.879,0.744 -11.836,1.129 v -7.986 c 3.957,-0.32 7.903,-0.631 11.836,-0.938 z m 14.047,-1.25 c -3.884,0.335 -7.783,0.676 -11.694,1.034 v -7.758 c 3.911,-0.301 7.81,-0.585 11.694,-0.859 z m 13.852,-1.139 c -3.827,0.3 -7.67,0.616 -11.529,0.942 v -7.551 c 3.859,-0.266 7.702,-0.534 11.529,-0.782 z m 13.632,-1.033 c -3.764,0.268 -7.545,0.554 -11.344,0.853 v -7.36 c 3.799,-0.241 7.581,-0.48 11.344,-0.709 z m 13.388,-0.932 c -3.693,0.25 -7.406,0.502 -11.139,0.769 v -7.189 c 3.733,-0.221 7.446,-0.435 11.139,-0.638 z m 13.12,69.743 c -3.618,0.598 -7.257,1.22 -10.914,1.878 v -7.034 c 3.659,-0.613 7.297,-1.197 10.914,-1.761 z m 12.829,-71.318 c -3.533,0.196 -7.09,0.397 -10.67,0.611 v -6.895 c 3.58,-0.176 7.137,-0.345 10.67,-0.508 z m 12.519,-0.655 c -3.445,0.17 -6.915,0.351 -10.409,0.539 0,-2.257 -10e-4,-4.515 -10e-4,-6.772 3.495,-0.157 6.965,-0.311 10.41,-0.448 z m 12.186,-0.572 c -3.351,0.144 -6.728,0.302 -10.131,0.471 0,-2.221 -10e-4,-4.443 -10e-4,-6.663 3.404,-0.144 6.781,-0.268 10.132,-0.393 z m 11.836,-0.496 c -3.251,0.125 -6.532,0.264 -9.838,0.408 v -6.57 c 3.306,-0.117 6.587,-0.233 9.838,-0.339 z m 11.469,-0.423 c -3.148,0.105 -6.325,0.225 -9.532,0.349 v -6.489 c 3.207,-0.104 6.384,-0.197 9.532,-0.29 z m 11.084,-0.357 c -3.04,0.092 -6.11,0.189 -9.21,0.293 v -6.418 c 3.1,-0.085 6.17,-0.172 9.21,-0.244 z m 10.686,-0.296 c -2.927,0.078 -5.886,0.158 -8.876,0.242 v -6.359 c 2.99,-0.071 5.949,-0.136 8.876,-0.202 z m 10.276,53.066 c -2.812,0.152 -5.658,0.31 -8.534,0.479 v -6.311 c 2.876,-0.162 5.721,-0.314 8.534,-0.445 z m 9.853,-53.496 c -2.694,0.045 -5.422,0.096 -8.182,0.154 v -6.272 c 2.76,-0.045 5.488,-0.088 8.182,-0.128 z m 9.421,-0.145 c -2.572,0.033 -5.18,0.072 -7.821,0.117 v -6.241 c 2.641,-0.032 5.249,-0.071 7.821,-0.097 z m 8.982,-0.104 c -2.451,0.02 -4.935,0.052 -7.454,0.084 v -6.218 c 2.519,-0.032 5.003,-0.05 7.454,-0.07 z m 8.536,-0.068 c -2.327,0.013 -4.687,0.028 -7.082,0.054 v -6.202 c 2.395,-0.019 4.755,-0.031 7.082,-0.044 z m 8.085,-0.038 c -2.201,0.007 -4.436,0.017 -6.706,0.029 v -6.19 c 2.27,-0.007 4.505,-0.024 6.706,-0.024 z m 7.633,-0.011 c -2.075,0 -4.185,0.008 -6.329,0.008 v -6.185 c 2.144,0 4.254,-0.006 6.329,-0.006 z m 7.663,0.013 c -2.174,-0.006 -4.313,-0.012 -6.417,-0.012 v -6.184 c 2.104,0 4.243,0.003 6.417,0.01 z m 8.116,0.039 c -2.301,-0.013 -4.566,-0.028 -6.796,-0.035 v -6.187 c 2.23,0.008 4.495,0.017 6.795,0.03 0,2.064 10e-4,4.128 10e-4,6.192 m 8.564,0.071 c -2.425,-0.026 -4.814,-0.041 -7.169,-0.061 v -6.195 c 2.355,0.014 4.744,0.032 7.169,0.052 z m 9.01,0.107 c -2.548,-0.04 -5.061,-0.073 -7.54,-0.092 v -6.207 c 2.479,0.02 4.992,0.043 7.54,0.076 z m 9.45,59.079 c -2.669,-0.117 -5.304,-0.227 -7.906,-0.326 v -6.226 c 2.602,0.092 5.237,0.195 7.906,0.305 z m 9.88,-58.739 c -2.787,-0.059 -5.542,-0.112 -8.263,-0.165 v -6.252 c 2.721,0.04 5.476,0.083 8.263,0.136 z m 10.304,0.243 c -2.904,-0.071 -5.776,-0.141 -8.615,-0.207 v -6.286 c 2.839,0.052 5.711,0.107 8.615,0.171 z m 10.712,0.3 c -3.016,-0.091 -6.002,-0.175 -8.955,-0.254 v -6.329 c 2.953,0.066 5.939,0.139 8.955,0.211 z m 11.11,0.361 c -3.125,-0.111 -6.22,-0.213 -9.286,-0.305 v -6.382 c 3.066,0.08 6.161,0.163 9.286,0.254 z m 11.493,0.428 c -3.23,-0.13 -6.431,-0.243 -9.604,-0.361 v -6.445 c 3.173,0.092 6.374,0.19 9.603,0.301 0,2.168 0.001,4.337 0.001,6.505 m 11.859,0.501 c -3.33,-0.151 -6.632,-0.291 -9.908,-0.423 v -6.518 c 3.276,0.111 6.578,0.226 9.908,0.35 z m 12.21,0.577 c -3.426,-0.168 -6.827,-0.33 -10.199,-0.486 v -6.606 c 3.372,0.131 6.773,0.261 10.199,0.404 z m 12.539,0.66 c -3.515,-0.195 -7.006,-0.385 -10.473,-0.556 v -6.706 c 3.466,0.152 6.958,0.3 10.473,0.463 z m 12.848,0.748 c -3.598,-0.222 -7.175,-0.433 -10.729,-0.63 v -6.819 c 3.552,0.164 7.13,0.34 10.729,0.523 z m 13.138,0.84 c -3.677,-0.248 -7.334,-0.476 -10.968,-0.707 v -6.948 c 3.635,0.184 7.291,0.384 10.968,0.588 z m 13.405,0.939 c -3.749,-0.275 -7.478,-0.533 -11.188,-0.789 v -7.094 c 3.71,0.21 7.439,0.426 11.188,0.655 z m 13.648,1.039 c -3.815,-0.301 -7.611,-0.598 -11.391,-0.874 v -7.255 c 3.78,0.23 7.576,0.478 11.391,0.726 z m 13.865,1.146 c -3.871,-0.33 -7.729,-0.649 -11.57,-0.962 v -7.435 c 3.841,0.255 7.698,0.527 11.57,0.8 z m 14.06,1.258 c -3.924,-0.358 -7.834,-0.721 -11.73,-1.056 v -7.631 c 3.896,0.282 7.806,0.571 11.73,0.877 z m 14.224,1.372 c -3.968,-0.397 -7.922,-0.779 -11.865,-1.152 v -7.847 c 3.943,0.307 7.897,0.625 11.865,0.957 z m 14.366,1.491 c -4.003,-0.43 -7.997,-0.845 -11.981,-1.25 0,-2.695 -10e-4,-5.389 -10e-4,-8.083 3.984,0.333 7.978,0.68 11.981,1.039 0,2.765 10e-4,5.53 10e-4,8.294 m 14.478,1.614 c -4.031,-0.463 -8.056,-0.915 -12.072,-1.353 v -8.339 c 4.016,0.36 8.041,0.739 12.072,1.124 z m 14.562,51.504 c -4.05,-0.977 -8.097,-1.923 -12.141,-2.843 v -8.614 c 4.044,0.84 8.091,1.704 12.141,2.596 z m 14.62,-47.899 c -4.064,-0.539 -8.127,-1.062 -12.188,-1.565 v -8.912 c 4.061,0.418 8.124,0.85 12.188,1.3 z m 14.649,2 c -4.069,-0.574 -8.14,-1.128 -12.208,-1.676 v -9.232 c 4.068,0.451 8.138,0.915 12.208,1.392 z m -586.427,8.862 c -4.067,0.648 -8.135,1.312 -12.205,1.984 v -9.435 c 4.069,-0.581 8.137,-1.155 12.205,-1.705 z m 14.617,-2.236 c -4.056,0.601 -8.116,1.214 -12.177,1.853 v -9.102 c 4.062,-0.548 8.121,-1.076 12.177,-1.593 z m 14.559,55.469 c -4.04,1.086 -8.081,2.21 -12.128,3.357 v -8.79 c 4.047,-1.064 8.088,-2.108 12.128,-3.115 z M 56.936,384.02 c -4.011,0.516 -8.028,1.051 -12.054,1.598 v -8.502 c 4.024,-0.475 8.043,-0.929 12.053,-1.374 0,2.759 10e-4,5.518 10e-4,8.278 m 14.356,-1.785 c -3.976,0.472 -7.961,0.968 -11.955,1.477 v -8.234 c 3.994,-0.437 7.98,-0.857 11.955,-1.269 z m 14.216,-1.642 c -3.934,0.438 -7.879,0.895 -11.836,1.359 v -7.987 c 3.957,-0.399 7.902,-0.794 11.836,-1.167 z m 14.047,-1.504 c -3.885,0.399 -7.783,0.814 -11.694,1.244 v -7.759 c 3.911,-0.372 7.809,-0.728 11.694,-1.069 z m 13.852,-1.37 c -3.828,0.359 -7.67,0.742 -11.529,1.133 v -7.551 c 3.858,-0.339 7.702,-0.659 11.529,-0.973 z m 13.632,-1.243 c -3.764,0.327 -7.545,0.675 -11.344,1.027 v -7.361 c 3.799,-0.307 7.58,-0.601 11.344,-0.883 z m 13.388,-1.121 c -3.694,0.295 -7.407,0.599 -11.139,0.925 v -7.188 c 3.733,-0.275 7.446,-0.541 11.139,-0.796 z m 13.12,-1.003 c -3.617,0.261 -7.255,0.541 -10.914,0.828 v -7.035 c 3.659,-0.247 7.297,-0.481 10.914,-0.711 z m 12.829,-0.894 c -3.533,0.236 -7.09,0.483 -10.67,0.737 V 367.3 c 3.58,-0.221 7.137,-0.429 10.67,-0.633 z m 12.519,-0.787 c -3.445,0.204 -6.915,0.422 -10.409,0.65 0,-2.258 -10e-4,-4.515 -10e-4,-6.772 3.495,-0.197 6.965,-0.382 10.41,-0.559 z m 12.186,-0.688 c -3.351,0.177 -6.728,0.366 -10.131,0.567 0,-2.222 -10e-4,-4.443 -10e-4,-6.664 3.404,-0.17 6.78,-0.337 10.132,-0.487 z m 11.836,51.937 c -3.252,0.329 -6.532,0.677 -9.838,1.048 v -6.57 c 3.306,-0.345 6.586,-0.676 9.838,-0.979 z m 11.469,-53.042 c -3.148,0.131 -6.325,0.268 -9.532,0.418 v -6.487 c 3.207,-0.124 6.384,-0.249 9.532,-0.36 z m 11.084,-0.43 c -3.04,0.112 -6.11,0.229 -9.21,0.353 v -6.418 c 3.1,-0.104 6.17,-0.212 9.21,-0.303 z m 10.686,-0.356 c -2.927,0.092 -5.886,0.187 -8.876,0.292 v -6.36 c 2.99,-0.09 5.949,-0.172 8.876,-0.25 z m 10.276,-0.289 c -2.812,0.072 -5.658,0.152 -8.534,0.236 v -6.311 c 2.876,-0.071 5.721,-0.144 8.534,-0.203 z m 9.853,-0.228 c -2.694,0.052 -5.422,0.121 -8.182,0.185 v -6.271 c 2.76,-0.059 5.488,-0.108 8.182,-0.16 z m 9.421,-0.174 c -2.572,0.046 -5.18,0.089 -7.821,0.141 v -6.241 c 2.641,-0.046 5.249,-0.082 7.821,-0.122 z m 8.982,-0.125 c -2.449,0.033 -4.935,0.061 -7.454,0.101 v -6.219 c 2.519,-0.038 5.003,-0.066 7.454,-0.085 z m 8.536,-0.083 c -2.327,0.02 -4.687,0.04 -7.082,0.066 v -6.201 c 2.395,-0.02 4.755,-0.043 7.082,-0.057 z m 8.085,-0.045 c -2.201,0.007 -4.436,0.017 -6.706,0.035 v -6.19 c 2.27,-0.014 4.505,-0.024 6.706,-0.03 z m 7.633,-0.013 c -2.075,0 -4.185,0.003 -6.329,0.01 v -6.186 c 2.144,0 4.254,-0.008 6.329,-0.008 z m 7.663,0.015 c -2.174,-0.012 -4.313,-0.008 -6.417,-0.014 v -6.185 c 2.104,0 4.243,0.007 6.417,0.013 z m 8.116,28.491 c -2.301,-0.033 -4.566,-0.057 -6.796,-0.069 v -6.187 c 2.23,0.013 4.495,0.037 6.795,0.063 0,2.064 10e-4,4.128 10e-4,6.193 m 8.564,-28.359 c -2.425,-0.032 -4.814,-0.053 -7.169,-0.073 v -6.194 c 2.355,0.02 4.744,0.037 7.169,0.062 z m 9.01,0.128 c -2.548,-0.039 -5.061,-0.077 -7.54,-0.11 v -6.206 c 2.479,0.026 4.992,0.055 7.54,0.094 z m 9.45,0.177 c -2.669,-0.058 -5.304,-0.105 -7.906,-0.151 v -6.226 c 2.602,0.04 5.237,0.084 7.906,0.13 z m 9.88,0.233 c -2.787,-0.072 -5.542,-0.138 -8.263,-0.198 v -6.251 c 2.721,0.045 5.476,0.104 8.263,0.169 z m 10.304,0.293 c -2.904,-0.091 -5.776,-0.171 -8.615,-0.249 v -6.286 c 2.839,0.066 5.711,0.135 8.615,0.214 z m 10.712,0.361 c -3.016,-0.112 -6.002,-0.214 -8.955,-0.306 v -6.329 c 2.953,0.078 5.939,0.165 8.955,0.263 z m 11.11,52.977 c -3.124,-0.287 -6.22,-0.547 -9.286,-0.79 v -6.382 c 3.066,0.23 6.162,0.472 9.286,0.739 z m 11.493,-52.028 c -3.23,-0.149 -6.431,-0.297 -9.604,-0.435 v -6.444 c 3.173,0.118 6.374,0.237 9.603,0.374 0,2.168 0.001,4.337 0.001,6.505 m 11.859,0.602 c -3.33,-0.176 -6.632,-0.35 -9.908,-0.508 v -6.518 c 3.276,0.137 6.577,0.285 9.908,0.436 z m 12.21,0.696 c -3.426,-0.202 -6.827,-0.403 -10.199,-0.587 v -6.605 c 3.372,0.157 6.773,0.328 10.199,0.503 z m 12.539,0.793 c -3.517,-0.228 -7.006,-0.459 -10.473,-0.669 v -6.705 c 3.467,0.177 6.958,0.372 10.473,0.574 z m 12.848,0.9 c -3.598,-0.268 -7.177,-0.515 -10.729,-0.758 v -6.819 c 3.552,0.209 7.131,0.422 10.729,0.65 z m 13.138,1.011 c -3.677,-0.294 -7.333,-0.581 -10.968,-0.852 v -6.948 c 3.635,0.237 7.291,0.477 10.968,0.731 z m 13.405,1.128 c -3.749,-0.327 -7.478,-0.64 -11.188,-0.949 v -7.094 c 3.71,0.263 7.439,0.534 11.188,0.816 z m 13.648,1.251 c -3.815,-0.367 -7.611,-0.717 -11.391,-1.052 v -7.255 c 3.78,0.289 7.576,0.588 11.391,0.904 z m 13.865,1.379 c -3.871,-0.403 -7.729,-0.786 -11.57,-1.158 v -7.435 c 3.841,0.321 7.699,0.652 11.57,0.996 z m 14.06,1.513 c -3.924,-0.437 -7.834,-0.857 -11.73,-1.271 v -7.631 c 3.896,0.355 7.806,0.714 11.73,1.092 z m 14.224,1.651 c -3.968,-0.476 -7.922,-0.941 -11.865,-1.386 v -7.847 c 3.943,0.385 7.897,0.78 11.865,1.192 z m 14.366,1.794 c -4.003,-0.515 -7.995,-1.022 -11.981,-1.505 0,-2.694 -10e-4,-5.388 -10e-4,-8.083 3.984,0.418 7.978,0.85 11.981,1.293 0,2.764 10e-4,5.53 10e-4,8.295 m 14.478,1.941 c -4.031,-0.555 -8.056,-1.098 -12.072,-1.628 v -8.339 c 4.016,0.452 8.042,0.917 12.072,1.4 z m 14.562,2.091 c -4.05,-0.606 -8.097,-1.186 -12.141,-1.754 v -8.615 c 4.043,0.49 8.091,0.987 12.141,1.508 z m 14.62,2.247 c -4.063,-0.651 -8.127,-1.27 -12.188,-1.883 v -8.913 c 4.06,0.528 8.125,1.058 12.188,1.618 z m 14.649,2.405 c -4.069,-0.692 -8.14,-1.357 -12.208,-2.015 v -9.232 c 4.068,0.56 8.139,1.137 12.208,1.731 z m -586.427,8.431 c -4.068,0.752 -8.137,1.523 -12.205,2.319 v -9.435 c 4.069,-0.699 8.137,-1.38 12.205,-2.04 z m 14.617,-2.614 c -4.057,0.699 -8.115,1.429 -12.177,2.166 v -9.103 c 4.062,-0.652 8.121,-1.284 12.177,-1.905 z m 14.559,-2.434 c -4.037,0.655 -8.081,1.325 -12.128,2.017 v -8.791 c 4.048,-0.608 8.091,-1.199 12.128,-1.774 z m 14.472,-2.256 c -4.011,0.602 -8.028,1.23 -12.054,1.869 v -8.502 c 4.024,-0.568 8.043,-1.115 12.053,-1.644 0,2.759 10e-4,5.518 10e-4,8.277 m 14.356,-2.086 c -3.976,0.556 -7.961,1.134 -11.955,1.727 v -8.234 c 3.994,-0.523 7.979,-1.034 11.955,-1.519 z m 14.216,-1.918 c -3.934,0.51 -7.879,1.045 -11.836,1.588 v -7.987 c 3.957,-0.477 7.902,-0.945 11.836,-1.397 z m 14.047,-1.758 c -3.885,0.465 -7.783,0.952 -11.694,1.454 v -7.759 c 3.911,-0.444 7.809,-0.873 11.694,-1.28 z m 13.852,-1.602 c -3.828,0.418 -7.67,0.868 -11.529,1.324 v -7.55 c 3.858,-0.404 7.701,-0.793 11.529,-1.165 z m 13.632,26.976 c -3.764,0.571 -7.547,1.152 -11.344,1.77 v -7.36 c 3.799,-0.561 7.579,-1.107 11.344,-1.626 z m 13.388,-29.739 c -3.693,0.347 -7.407,0.704 -11.139,1.082 v -7.188 c 3.732,-0.333 7.445,-0.651 11.139,-0.953 z m 13.12,19.706 c -3.617,0.421 -7.255,0.857 -10.914,1.32 v -7.034 c 3.659,-0.423 7.297,-0.817 10.914,-1.203 z m 12.829,-21.922 c -3.534,0.268 -7.09,0.561 -10.67,0.861 v -6.896 c 3.58,-0.266 7.136,-0.521 10.67,-0.757 z m 12.519,-0.92 c -3.445,0.242 -6.915,0.492 -10.409,0.759 0,-2.258 -10e-4,-4.515 -10e-4,-6.773 3.495,-0.234 6.965,-0.452 10.41,-0.668 z m 12.186,-0.805 c -3.351,0.21 -6.728,0.429 -10.131,0.663 0,-2.221 -10e-4,-4.443 -10e-4,-6.663 3.404,-0.202 6.78,-0.401 10.132,-0.584 z m 11.836,-0.696 c -3.251,0.176 -6.532,0.372 -9.838,0.573 v -6.569 c 3.306,-0.175 6.587,-0.341 9.838,-0.505 z m 11.469,-0.596 c -3.148,0.151 -6.325,0.314 -9.532,0.491 v -6.489 c 3.207,-0.156 6.384,-0.293 9.532,-0.43 z m 11.084,-0.502 c -3.04,0.124 -6.11,0.27 -9.21,0.412 v -6.418 c 3.1,-0.13 6.17,-0.251 9.21,-0.363 z m 10.686,-0.417 c -2.927,0.106 -5.886,0.218 -8.876,0.342 v -6.359 c 2.99,-0.11 5.949,-0.209 8.876,-0.301 z m 10.276,-0.337 c -2.812,0.085 -5.658,0.179 -8.534,0.276 v -6.311 c 2.876,-0.091 5.721,-0.171 8.534,-0.243 z m 9.853,-0.267 c -2.694,0.065 -5.422,0.14 -8.182,0.218 v -6.272 c 2.76,-0.072 5.488,-0.14 8.182,-0.192 z m 9.421,-0.203 c -2.572,0.052 -5.18,0.107 -7.821,0.165 v -6.24 c 2.641,-0.053 5.249,-0.101 7.821,-0.146 z m 8.982,-0.147 c -2.451,0.033 -4.935,0.073 -7.454,0.119 v -6.218 c 2.519,-0.045 5.005,-0.071 7.454,-0.104 z m 8.536,28.986 c -2.327,0.026 -4.687,0.075 -7.082,0.12 v -6.201 c 2.395,-0.045 4.755,-0.078 7.082,-0.111 z m 8.085,-29.134 c -2.201,0.007 -4.436,0.022 -6.706,0.041 v -6.19 c 2.27,-0.013 4.505,-0.03 6.706,-0.037 z m 7.633,-0.016 c -2.075,0 -4.185,0.005 -6.329,0.011 v -6.185 c 2.144,-0.006 4.254,-0.01 6.329,-0.01 z m 7.663,0.018 c -2.174,-0.012 -4.313,-0.017 -6.417,-0.017 v -6.184 c 2.104,0 4.243,0.009 6.417,0.015 z m 8.116,0.055 c -2.301,-0.026 -4.566,-0.035 -6.796,-0.048 v -6.187 c 2.23,0.014 4.495,0.023 6.795,0.043 0,2.064 10e-4,4.128 10e-4,6.192 m 8.564,0.1 c -2.425,-0.04 -4.814,-0.066 -7.169,-0.086 v -6.194 c 2.355,0.02 4.744,0.049 7.169,0.074 z m 9.01,0.149 c -2.548,-0.045 -5.061,-0.095 -7.54,-0.128 v -6.207 c 2.479,0.033 4.992,0.074 7.54,0.112 z m 9.45,30.578 c -2.669,-0.104 -5.304,-0.195 -7.906,-0.28 v -6.227 c 2.602,0.079 5.237,0.161 7.906,0.259 z m 9.88,-30.1 c -2.787,-0.084 -5.542,-0.158 -8.263,-0.23 v -6.252 c 2.721,0.059 5.476,0.124 8.263,0.202 z m 10.304,0.343 c -2.904,-0.104 -5.776,-0.198 -8.615,-0.29 v -6.286 c 2.839,0.079 5.711,0.164 8.615,0.255 z m 10.712,0.422 c -3.016,-0.131 -6.002,-0.245 -8.955,-0.357 v -6.329 c 2.953,0.092 5.939,0.197 8.955,0.314 z m 11.11,0.507 c -3.125,-0.149 -6.221,-0.29 -9.286,-0.428 v -6.381 c 3.066,0.118 6.161,0.24 9.286,0.377 z m 11.493,0.603 c -3.23,-0.182 -6.431,-0.351 -9.604,-0.508 v -6.445 c 3.173,0.139 6.374,0.285 9.603,0.448 0,2.168 0.001,4.336 0.001,6.505 m 11.859,0.703 c -3.33,-0.208 -6.632,-0.403 -9.908,-0.593 v -6.519 c 3.276,0.164 6.578,0.333 9.908,0.522 z m 14.591,47.5 c -3.442,-0.456 -6.86,-0.882 -10.251,-1.289 v -6.623 c 3.391,0.38 6.809,0.78 10.251,1.203 z m 10.158,-45.76 c -3.515,-0.273 -7.006,-0.538 -10.473,-0.781 v -6.705 c 3.467,0.216 6.958,0.446 10.473,0.687 z m 12.848,1.052 c -3.598,-0.313 -7.175,-0.602 -10.729,-0.885 v -6.82 c 3.554,0.244 7.131,0.504 10.729,0.779 z m 13.138,32.752 c -3.677,-0.528 -7.333,-1.04 -10.968,-1.528 V 407 c 3.635,0.455 7.291,0.919 10.968,1.409 z m 13.405,-30.252 c -3.749,-0.385 -7.478,-0.753 -11.188,-1.108 v -7.094 c 3.71,0.309 7.439,0.635 11.188,0.975 z m 13.648,1.463 c -3.815,-0.427 -7.611,-0.835 -11.391,-1.23 v -7.254 c 3.78,0.347 7.576,0.707 11.391,1.08 z m 13.865,1.611 c -3.871,-0.467 -7.729,-0.915 -11.57,-1.354 v -7.433 c 3.841,0.379 7.699,0.775 11.57,1.191 z m 14.06,1.769 c -3.923,-0.515 -7.834,-1.006 -11.73,-1.485 v -7.63 c 3.896,0.42 7.807,0.849 11.73,1.305 z m 14.224,39.437 c -3.964,-0.874 -7.922,-1.706 -11.865,-2.528 v -7.848 c 3.944,0.752 7.899,1.532 11.865,2.334 z m 14.366,-35.411 c -4.003,-0.606 -7.995,-1.197 -11.981,-1.759 0,-2.694 -10e-4,-5.388 -10e-4,-8.083 3.984,0.497 7.978,1.013 11.981,1.547 0,2.765 10e-4,5.53 10e-4,8.295 m 14.478,2.268 c -4.03,-0.652 -8.056,-1.287 -12.072,-1.903 v -8.337 c 4.016,0.537 8.041,1.099 12.072,1.673 z m 14.562,57.481 c -4.05,-1.224 -8.097,-2.421 -12.141,-3.581 v -8.616 c 4.046,1.077 8.091,2.195 12.141,3.335 z m 14.62,-52.41 c -4.063,-0.756 -8.127,-1.489 -12.188,-2.201 v -8.912 c 4.061,0.626 8.124,1.271 12.188,1.935 z m 14.649,2.811 c -4.069,-0.809 -8.139,-1.592 -12.208,-2.355 v -9.233 c 4.068,0.672 8.139,1.36 12.208,2.071 z m -586.427,8 c -4.068,0.863 -8.136,1.746 -12.205,2.654 v -9.436 c 4.068,-0.816 8.137,-1.603 12.205,-2.375 z m 14.617,-2.992 c -4.056,0.804 -8.115,1.63 -12.177,2.479 v -9.103 c 4.06,-0.763 8.121,-1.499 12.177,-2.217 z M 42.464,423.7 c -4.039,0.902 -8.081,1.836 -12.128,2.795 v -8.791 c 4.047,-0.874 8.09,-1.729 12.128,-2.553 z m 14.472,-19.815 c -4.011,0.693 -8.03,1.402 -12.054,2.139 v -8.503 c 4.024,-0.658 8.042,-1.299 12.053,-1.914 0,2.76 10e-4,5.518 10e-4,8.278 m 14.356,-2.387 c -3.975,0.642 -7.961,1.297 -11.955,1.976 v -8.234 c 3.994,-0.608 7.979,-1.199 11.955,-1.768 z m 14.216,35.856 c -3.936,0.883 -7.881,1.802 -11.836,2.749 v -7.986 c 3.955,-0.882 7.901,-1.734 11.836,-2.559 z M 99.555,397.29 c -3.886,0.531 -7.783,1.091 -11.694,1.665 v -7.76 c 3.911,-0.515 7.809,-1.01 11.694,-1.488 z m 13.852,-1.833 c -3.828,0.484 -7.67,0.995 -11.529,1.516 v -7.551 c 3.858,-0.469 7.701,-0.924 11.529,-1.356 z m 13.632,-1.663 c -3.764,0.439 -7.545,0.899 -11.344,1.375 v -7.361 c 3.798,-0.431 7.581,-0.83 11.344,-1.23 z m 13.388,-1.499 c -3.693,0.4 -7.407,0.809 -11.139,1.239 v -7.19 c 3.732,-0.384 7.445,-0.753 11.139,-1.107 z m 13.12,-1.342 c -3.617,0.355 -7.255,0.718 -10.914,1.109 v -7.035 c 3.659,-0.345 7.297,-0.677 10.914,-0.991 z m 12.829,-1.194 c -3.533,0.315 -7.09,0.641 -10.67,0.986 v -6.896 c 3.58,-0.306 7.137,-0.599 10.67,-0.881 z m 12.519,-1.053 c -3.445,0.275 -6.915,0.563 -10.409,0.869 0,-2.258 -10e-4,-4.515 -10e-4,-6.772 3.495,-0.274 6.964,-0.535 10.41,-0.778 z m 12.186,-0.92 c -3.351,0.243 -6.728,0.491 -10.131,0.758 0,-2.221 -10e-4,-4.443 -10e-4,-6.664 3.404,-0.234 6.781,-0.463 10.132,-0.678 z m 11.836,20.648 c -3.252,0.276 -6.532,0.572 -9.838,0.884 v -6.57 c 3.306,-0.286 6.587,-0.558 9.838,-0.814 z m 11.469,-22.127 c -3.148,0.177 -6.325,0.359 -9.532,0.561 v -6.489 c 3.207,-0.175 6.384,-0.343 9.532,-0.501 z m 11.084,-0.575 c -3.04,0.144 -6.11,0.303 -9.21,0.472 v -6.418 c 3.1,-0.15 6.17,-0.291 9.21,-0.422 z m 10.686,-0.476 c -2.927,0.118 -5.886,0.247 -8.876,0.39 v -6.359 c 2.99,-0.124 5.949,-0.245 8.876,-0.349 z m 10.276,12.887 c -2.812,0.118 -5.658,0.249 -8.534,0.386 v -6.311 c 2.876,-0.124 5.721,-0.248 8.534,-0.353 z m 9.853,-13.579 c -2.694,0.072 -5.422,0.158 -8.182,0.249 v -6.272 c 2.76,-0.084 5.488,-0.157 8.182,-0.223 z m 9.421,-0.232 c -2.572,0.058 -5.18,0.117 -7.821,0.189 v -6.241 c 2.641,-0.066 5.249,-0.124 7.821,-0.17 z m 8.982,-0.168 c -2.451,0.04 -4.935,0.084 -7.454,0.136 v -6.218 c 2.519,-0.052 5.003,-0.088 7.454,-0.122 z m 8.536,-0.11 c -2.327,0.027 -4.687,0.049 -7.082,0.088 v -6.201 c 2.395,-0.026 4.755,-0.059 7.082,-0.079 z m 8.085,-0.06 c -2.201,0.013 -4.436,0.021 -6.706,0.047 v -6.191 c 2.27,-0.019 4.505,-0.036 6.706,-0.042 z m 7.633,38.495 c -2.075,0 -4.185,0.007 -6.329,0.02 v -6.185 c 2.144,-0.013 4.254,-0.019 6.329,-0.019 z m 7.663,-38.492 c -2.174,-0.014 -4.313,-0.02 -6.417,-0.02 v -6.185 c 2.104,0 4.243,0.005 6.417,0.019 z m 8.116,0.063 c -2.301,-0.026 -4.566,-0.042 -6.796,-0.056 v -6.187 c 2.23,0.013 4.495,0.031 6.795,0.05 0,2.065 10e-4,4.129 10e-4,6.193 m 8.564,0.113 c -2.425,-0.039 -4.814,-0.071 -7.169,-0.098 v -6.194 c 2.355,0.019 4.744,0.056 7.169,0.088 z m 9.01,0.172 c -2.548,-0.059 -5.061,-0.108 -7.54,-0.147 v -6.207 c 2.479,0.032 4.992,0.08 7.54,0.131 z m 9.45,0.236 c -2.669,-0.071 -5.304,-0.135 -7.906,-0.201 v -6.227 c 2.602,0.053 5.237,0.116 7.906,0.18 z m 9.88,0.311 c -2.787,-0.098 -5.542,-0.184 -8.263,-0.264 v -6.253 c 2.721,0.073 5.476,0.152 8.263,0.237 z m 10.304,0.392 c -2.904,-0.124 -5.776,-0.234 -8.615,-0.333 v -6.286 c 2.839,0.092 5.711,0.187 8.615,0.297 z m 10.712,13.117 c -3.016,-0.182 -6.002,-0.342 -8.955,-0.493 v -6.33 c 2.953,0.137 5.939,0.288 8.955,0.451 z m 11.11,-12.053 c -3.125,-0.176 -6.22,-0.34 -9.286,-0.491 v -6.382 c 3.066,0.131 6.161,0.283 9.286,0.44 z m 11.493,26.648 c -3.23,-0.292 -6.431,-0.57 -9.604,-0.826 v -6.444 c 3.173,0.236 6.374,0.491 9.603,0.765 0,2.168 0.001,4.337 0.001,6.505 m 11.859,-25.154 c -3.33,-0.242 -6.632,-0.469 -9.908,-0.679 v -6.519 c 3.276,0.19 6.578,0.392 9.908,0.607 z m 12.21,0.929 c -3.426,-0.272 -6.827,-0.534 -10.199,-0.783 v -6.606 c 3.372,0.222 6.773,0.461 10.199,0.701 z m 12.539,1.062 c -3.515,-0.312 -7.006,-0.611 -10.473,-0.894 v -6.706 c 3.467,0.249 6.958,0.52 10.473,0.801 z m 12.848,1.203 c -3.597,-0.358 -7.175,-0.69 -10.729,-1.012 v -6.82 c 3.554,0.289 7.131,0.587 10.729,0.906 z m 13.138,1.353 c -3.677,-0.398 -7.334,-0.769 -10.968,-1.138 v -6.949 c 3.635,0.323 7.291,0.666 10.968,1.018 z m 13.405,1.508 c -3.749,-0.437 -7.478,-0.86 -11.188,-1.268 v -7.094 c 3.71,0.369 7.439,0.743 11.188,1.135 z m 13.648,1.674 c -3.814,-0.491 -7.611,-0.953 -11.391,-1.405 v -7.257 c 3.78,0.401 7.577,0.82 11.391,1.259 z m 13.865,11.66 c -3.87,-0.61 -7.729,-1.192 -11.57,-1.76 v -7.435 c 3.842,0.51 7.7,1.039 11.57,1.598 z m 14.06,-7.792 c -3.921,-0.592 -7.834,-1.153 -11.73,-1.698 v -7.632 c 3.896,0.493 7.807,0.994 11.73,1.521 z m 14.224,2.209 c -3.966,-0.64 -7.922,-1.252 -11.865,-1.853 v -7.848 c 3.943,0.536 7.899,1.085 11.865,1.659 z m 14.366,2.399 c -4.003,-0.691 -7.997,-1.359 -11.981,-2.012 0,-2.695 -10e-4,-5.389 -10e-4,-8.084 3.984,0.582 7.978,1.182 11.981,1.801 0,2.766 10e-4,5.53 10e-4,8.295 m 14.478,2.596 c -4.031,-0.743 -8.056,-1.47 -12.072,-2.177 v -8.338 c 4.016,0.628 8.042,1.276 12.072,1.948 z m 14.562,2.798 c -4.05,-0.807 -8.097,-1.589 -12.141,-2.345 v -8.616 c 4.044,0.678 8.091,1.376 12.141,2.1 z m 14.62,3.005 c -4.063,-0.866 -8.127,-1.702 -12.188,-2.518 v -8.913 c 4.061,0.731 8.124,1.485 12.188,2.254 z m 14.649,26.036 c -4.067,-1.16 -8.138,-2.279 -12.208,-3.375 v 9.232 c 4.073,1.182 8.139,2.408 12.208,3.659 z" /></g></g></g></g></g></g></svg>